<svg xmlns="http://www.w3.org/2000/svg" xmlns:xlink="http://www.w3.org/1999/xlink" width="800" zoomAndPan="magnify" viewBox="0 0 600 599.999999" height="800" preserveAspectRatio="xMidYMid meet" version="1.0"><defs><filter x="0%" y="0%" width="100%" height="100%" id="dc7fdbde8c"><feColorMatrix values="0 0 0 0 1 0 0 0 0 1 0 0 0 0 1 0 0 0 1 0" color-interpolation-filters="sRGB"/></filter><g/><mask id="d344b8e9d3"><g filter="url(#dc7fdbde8c)"><rect x="-192" width="864" fill="#000000" y="-132" height="863.999999" fill-opacity="0.72"/></g></mask><clipPath id="aaa1134f70"><path d="M 0 0 L 463.921875 0 L 463.921875 266.640625 L 0 266.640625 Z M 0 0 " clip-rule="nonzero"/></clipPath><clipPath id="c1dcbd27bd"><rect x="0" width="464" y="0" height="267"/></clipPath><clipPath id="33093a0dab"><rect x="0" width="464" y="0" height="267"/></clipPath><clipPath id="1d72b6d74f"><path d="M 0 93 L 470.640625 93 L 470.640625 334.800781 L 0 334.800781 Z M 0 93 " clip-rule="nonzero"/></clipPath><clipPath id="4e5ca9ce3f"><rect x="0" width="471" y="0" height="242"/></clipPath><clipPath id="a192cf6c2b"><rect x="0" width="471" y="0" height="335"/></clipPath></defs><g transform="matrix(1, 0, 0, 1, 60, -0.000000000000034788)"><g clip-path="url(#a192cf6c2b)"><g mask="url(#d344b8e9d3)"><g transform="matrix(1, 0, 0, 1, 0, -0.000000000000034788)"><g clip-path="url(#33093a0dab)"><g clip-path="url(#aaa1134f70)"><g transform="matrix(1, 0, 0, 1, 0, -0.000000000000034788)"><g clip-path="url(#c1dcbd27bd)"><g fill="#00bf63" fill-opacity="1"><g transform="translate(15.419983, 9.862273)"><g/></g></g><g fill="#00bf63" fill-opacity="1"><g transform="translate(30.839969, 9.862273)"><g/></g></g><g fill="#00bf63" fill-opacity="1"><g transform="translate(46.259955, 9.862273)"><g/></g></g><g fill="#00bf63" fill-opacity="1"><g transform="translate(61.679941, 9.862273)"><g/></g></g><g fill="#00bf63" fill-opacity="1"><g transform="translate(77.099926, 9.862273)"><g/></g></g><g fill="#00bf63" fill-opacity="1"><g transform="translate(92.519912, 9.862273)"><g/></g></g><g fill="#00bf63" fill-opacity="1"><g transform="translate(107.939898, 9.862273)"><g/></g></g><g fill="#00bf63" fill-opacity="1"><g transform="translate(123.359884, 9.862273)"><g/></g></g><g fill="#00bf63" fill-opacity="1"><g transform="translate(138.779869, 9.862273)"><g/></g></g><g fill="#00bf63" fill-opacity="1"><g transform="translate(154.199855, 9.862273)"><g/></g></g><g fill="#00bf63" fill-opacity="1"><g transform="translate(169.619841, 9.862273)"><g/></g></g><g fill="#00bf63" fill-opacity="1"><g transform="translate(185.041001, 9.862273)"><g><path d="M 1.28125 4.78125 L 1.28125 1.59375 L 14.140625 1.59375 L 14.140625 4.78125 Z M 1.28125 4.78125 "/></g></g></g><g fill="#00bf63" fill-opacity="1"><g transform="translate(200.461085, 9.862273)"><g/></g></g><g fill="#00bf63" fill-opacity="1"><g transform="translate(215.88107, 9.862273)"><g/></g></g><g fill="#00bf63" fill-opacity="1"><g transform="translate(231.301056, 9.862273)"><g/></g></g><g fill="#00bf63" fill-opacity="1"><g transform="translate(246.721042, 9.862273)"><g/></g></g><g fill="#00bf63" fill-opacity="1"><g transform="translate(262.141028, 9.862273)"><g/></g></g><g fill="#00bf63" fill-opacity="1"><g transform="translate(277.561013, 9.862273)"><g/></g></g><g fill="#00bf63" fill-opacity="1"><g transform="translate(292.980999, 9.862273)"><g/></g></g><g fill="#00bf63" fill-opacity="1"><g transform="translate(308.400985, 9.862273)"><g/></g></g><g fill="#00bf63" fill-opacity="1"><g transform="translate(323.82097, 9.862273)"><g/></g></g><g fill="#00bf63" fill-opacity="1"><g transform="translate(339.240956, 9.862273)"><g/></g></g><g fill="#00bf63" fill-opacity="1"><g transform="translate(354.660942, 9.862273)"><g/></g></g><g fill="#00bf63" fill-opacity="1"><g transform="translate(370.080928, 9.862273)"><g/></g></g><g fill="#00bf63" fill-opacity="1"><g transform="translate(385.500913, 9.862273)"><g/></g></g><g fill="#00bf63" fill-opacity="1"><g transform="translate(400.920899, 9.862273)"><g/></g></g><g fill="#00bf63" fill-opacity="1"><g transform="translate(416.340885, 9.862273)"><g/></g></g><g fill="#00bf63" fill-opacity="1"><g transform="translate(431.76087, 9.862273)"><g/></g></g><g fill="#00bf63" fill-opacity="1"><g transform="translate(447.180856, 9.862273)"><g/></g></g><g fill="#00bf63" fill-opacity="1"><g transform="translate(15.419983, 45.165489)"><g/></g></g><g fill="#00bf63" fill-opacity="1"><g transform="translate(30.839969, 45.165489)"><g/></g></g><g fill="#00bf63" fill-opacity="1"><g transform="translate(46.259955, 45.165489)"><g/></g></g><g fill="#00bf63" fill-opacity="1"><g transform="translate(61.679941, 45.165489)"><g/></g></g><g fill="#00bf63" fill-opacity="1"><g transform="translate(77.099926, 45.165489)"><g/></g></g><g fill="#00bf63" fill-opacity="1"><g transform="translate(92.519912, 45.165489)"><g/></g></g><g fill="#00bf63" fill-opacity="1"><g transform="translate(107.939898, 45.165489)"><g/></g></g><g fill="#00bf63" fill-opacity="1"><g transform="translate(123.359884, 45.165489)"><g/></g></g><g fill="#00bf63" fill-opacity="1"><g transform="translate(138.779869, 45.165489)"><g/></g></g><g fill="#00bf63" fill-opacity="1"><g transform="translate(154.199855, 45.165489)"><g/></g></g><g fill="#00bf63" fill-opacity="1"><g transform="translate(169.620917, 45.165489)"><g><path d="M 6.703125 -9 C 6.703125 -7.582031 6.847656 -6.300781 7.140625 -5.15625 C 7.441406 -4.007812 7.945312 -2.878906 8.65625 -1.765625 C 9.375 -0.648438 10.347656 0.578125 11.578125 1.921875 L 9.21875 4.046875 C 7.863281 2.878906 6.6875 1.648438 5.6875 0.359375 C 4.695312 -0.929688 3.929688 -2.34375 3.390625 -3.875 C 2.847656 -5.414062 2.578125 -7.125 2.578125 -9 C 2.578125 -10.875 2.847656 -12.578125 3.390625 -14.109375 C 3.929688 -15.640625 4.695312 -17.050781 5.6875 -18.34375 C 6.6875 -19.644531 7.863281 -20.878906 9.21875 -22.046875 L 11.578125 -19.90625 C 10.710938 -18.96875 9.972656 -18.066406 9.359375 -17.203125 C 8.742188 -16.335938 8.238281 -15.476562 7.84375 -14.625 C 7.445312 -13.769531 7.15625 -12.882812 6.96875 -11.96875 C 6.789062 -11.050781 6.703125 -10.0625 6.703125 -9 Z M 6.703125 -9 "/></g></g></g><g fill="#00bf63" fill-opacity="1"><g transform="translate(185.040903, 45.165489)"><g><path d="M 1.28125 4.78125 L 1.28125 1.59375 L 14.140625 1.59375 L 14.140625 4.78125 Z M 1.28125 4.78125 "/></g></g></g><g fill="#00bf63" fill-opacity="1"><g transform="translate(200.460889, 45.165489)"><g><path d="M 8.71875 -9 C 8.71875 -10.0625 8.625 -11.050781 8.4375 -11.96875 C 8.257812 -12.882812 7.972656 -13.769531 7.578125 -14.625 C 7.179688 -15.476562 6.675781 -16.335938 6.0625 -17.203125 C 5.445312 -18.066406 4.707031 -18.96875 3.84375 -19.90625 L 6.203125 -22.046875 C 7.554688 -20.878906 8.726562 -19.644531 9.71875 -18.34375 C 10.71875 -17.050781 11.488281 -15.640625 12.03125 -14.109375 C 12.570312 -12.578125 12.84375 -10.875 12.84375 -9 C 12.84375 -7.125 12.570312 -5.414062 12.03125 -3.875 C 11.488281 -2.34375 10.71875 -0.929688 9.71875 0.359375 C 8.726562 1.648438 7.554688 2.878906 6.203125 4.046875 L 3.84375 1.921875 C 5.070312 0.578125 6.039062 -0.648438 6.75 -1.765625 C 7.46875 -2.878906 7.972656 -4.007812 8.265625 -5.15625 C 8.566406 -6.300781 8.71875 -7.582031 8.71875 -9 Z M 8.71875 -9 "/></g></g></g><g fill="#00bf63" fill-opacity="1"><g transform="translate(215.881168, 45.165489)"><g/></g></g><g fill="#00bf63" fill-opacity="1"><g transform="translate(231.301154, 45.165489)"><g/></g></g><g fill="#00bf63" fill-opacity="1"><g transform="translate(246.72114, 45.165489)"><g/></g></g><g fill="#00bf63" fill-opacity="1"><g transform="translate(262.141125, 45.165489)"><g/></g></g><g fill="#00bf63" fill-opacity="1"><g transform="translate(277.561111, 45.165489)"><g/></g></g><g fill="#00bf63" fill-opacity="1"><g transform="translate(292.981097, 45.165489)"><g/></g></g><g fill="#00bf63" fill-opacity="1"><g transform="translate(308.401083, 45.165489)"><g/></g></g><g fill="#00bf63" fill-opacity="1"><g transform="translate(323.821068, 45.165489)"><g/></g></g><g fill="#00bf63" fill-opacity="1"><g transform="translate(339.241054, 45.165489)"><g/></g></g><g fill="#00bf63" fill-opacity="1"><g transform="translate(354.66104, 45.165489)"><g/></g></g><g fill="#00bf63" fill-opacity="1"><g transform="translate(370.081025, 45.165489)"><g/></g></g><g fill="#00bf63" fill-opacity="1"><g transform="translate(385.501011, 45.165489)"><g/></g></g><g fill="#00bf63" fill-opacity="1"><g transform="translate(400.920997, 45.165489)"><g/></g></g><g fill="#00bf63" fill-opacity="1"><g transform="translate(416.340983, 45.165489)"><g/></g></g><g fill="#00bf63" fill-opacity="1"><g transform="translate(431.760968, 45.165489)"><g/></g></g><g fill="#00bf63" fill-opacity="1"><g transform="translate(447.180954, 45.165489)"><g/></g></g><g fill="#00bf63" fill-opacity="1"><g transform="translate(15.419983, 80.468705)"><g/></g></g><g fill="#00bf63" fill-opacity="1"><g transform="translate(30.840165, 80.468705)"><g><path d="M 1.28125 4.78125 L 1.28125 1.59375 L 14.140625 1.59375 L 14.140625 4.78125 Z M 1.28125 4.78125 "/></g></g></g><g fill="#00bf63" fill-opacity="1"><g transform="translate(46.260151, 80.468705)"><g><path d="M 1.28125 4.78125 L 1.28125 1.59375 L 14.140625 1.59375 L 14.140625 4.78125 Z M 1.28125 4.78125 "/></g></g></g><g fill="#00bf63" fill-opacity="1"><g transform="translate(61.680136, 80.468705)"><g><path d="M 1.28125 4.78125 L 1.28125 1.59375 L 14.140625 1.59375 L 14.140625 4.78125 Z M 1.28125 4.78125 "/></g></g></g><g fill="#00bf63" fill-opacity="1"><g transform="translate(77.100122, 80.468705)"><g/></g></g><g fill="#00bf63" fill-opacity="1"><g transform="translate(92.520108, 80.468705)"><g><path d="M 1.28125 4.78125 L 1.28125 1.59375 L 14.140625 1.59375 L 14.140625 4.78125 Z M 1.28125 4.78125 "/></g></g></g><g fill="#00bf63" fill-opacity="1"><g transform="translate(107.940094, 80.468705)"><g/></g></g><g fill="#00bf63" fill-opacity="1"><g transform="translate(123.360079, 80.468705)"><g><path d="M 1.28125 4.78125 L 1.28125 1.59375 L 14.140625 1.59375 L 14.140625 4.78125 Z M 1.28125 4.78125 "/></g></g></g><g fill="#00bf63" fill-opacity="1"><g transform="translate(138.780065, 80.468705)"><g><path d="M 1.28125 4.78125 L 1.28125 1.59375 L 14.140625 1.59375 L 14.140625 4.78125 Z M 1.28125 4.78125 "/></g></g></g><g fill="#00bf63" fill-opacity="1"><g transform="translate(154.200834, 80.468705)"><g/></g></g><g fill="#00bf63" fill-opacity="1"><g transform="translate(169.62082, 80.468705)"><g/></g></g><g fill="#00bf63" fill-opacity="1"><g transform="translate(185.041001, 80.468705)"><g><path d="M 1.28125 4.78125 L 1.28125 1.59375 L 14.140625 1.59375 L 14.140625 4.78125 Z M 1.28125 4.78125 "/></g></g></g><g fill="#00bf63" fill-opacity="1"><g transform="translate(200.461085, 80.468705)"><g/></g></g><g fill="#00bf63" fill-opacity="1"><g transform="translate(215.88107, 80.468705)"><g/></g></g><g fill="#00bf63" fill-opacity="1"><g transform="translate(231.301252, 80.468705)"><g><path d="M 1.28125 4.78125 L 1.28125 1.59375 L 14.140625 1.59375 L 14.140625 4.78125 Z M 1.28125 4.78125 "/></g></g></g><g fill="#00bf63" fill-opacity="1"><g transform="translate(246.721238, 80.468705)"><g><path d="M 1.28125 4.78125 L 1.28125 1.59375 L 14.140625 1.59375 L 14.140625 4.78125 Z M 1.28125 4.78125 "/></g></g></g><g fill="#00bf63" fill-opacity="1"><g transform="translate(262.141223, 80.468705)"><g><path d="M 1.28125 4.78125 L 1.28125 1.59375 L 14.140625 1.59375 L 14.140625 4.78125 Z M 1.28125 4.78125 "/></g></g></g><g fill="#00bf63" fill-opacity="1"><g transform="translate(277.561503, 80.468705)"><g/></g></g><g fill="#00bf63" fill-opacity="1"><g transform="translate(292.981488, 80.468705)"><g/></g></g><g fill="#00bf63" fill-opacity="1"><g transform="translate(308.401474, 80.468705)"><g/></g></g><g fill="#00bf63" fill-opacity="1"><g transform="translate(323.82146, 80.468705)"><g/></g></g><g fill="#00bf63" fill-opacity="1"><g transform="translate(339.241446, 80.468705)"><g/></g></g><g fill="#00bf63" fill-opacity="1"><g transform="translate(354.661431, 80.468705)"><g/></g></g><g fill="#00bf63" fill-opacity="1"><g transform="translate(370.081417, 80.468705)"><g/></g></g><g fill="#00bf63" fill-opacity="1"><g transform="translate(385.501403, 80.468705)"><g/></g></g><g fill="#00bf63" fill-opacity="1"><g transform="translate(400.921388, 80.468705)"><g/></g></g><g fill="#00bf63" fill-opacity="1"><g transform="translate(416.341374, 80.468705)"><g/></g></g><g fill="#00bf63" fill-opacity="1"><g transform="translate(431.76136, 80.468705)"><g/></g></g><g fill="#00bf63" fill-opacity="1"><g transform="translate(447.181346, 80.468705)"><g/></g></g><g fill="#00bf63" fill-opacity="1"><g transform="translate(15.420081, 115.771921)"><g><path d="M 3.90625 2.875 L 0.734375 1.421875 L 11.546875 -21 L 14.6875 -19.546875 Z M 3.90625 2.875 "/></g></g></g><g fill="#00bf63" fill-opacity="1"><g transform="translate(30.840067, 115.771921)"><g/></g></g><g fill="#00bf63" fill-opacity="1"><g transform="translate(46.260053, 115.771921)"><g><path d="M 1.28125 4.78125 L 1.28125 1.59375 L 14.140625 1.59375 L 14.140625 4.78125 Z M 1.28125 4.78125 "/></g></g></g><g fill="#00bf63" fill-opacity="1"><g transform="translate(61.680039, 115.771921)"><g/></g></g><g fill="#00bf63" fill-opacity="1"><g transform="translate(77.100024, 115.771921)"><g><path d="M 0.734375 -19.546875 L 3.90625 -21 L 14.6875 1.421875 L 11.515625 2.875 Z M 0.734375 -19.546875 "/></g></g></g><g fill="#00bf63" fill-opacity="1"><g transform="translate(92.52001, 115.771921)"><g/></g></g><g fill="#00bf63" fill-opacity="1"><g transform="translate(107.939996, 115.771921)"><g><path d="M 6.265625 -11.890625 L 5.765625 -19.078125 L 9.625 -19.078125 L 9.140625 -11.890625 Z M 6.265625 -11.890625 "/></g></g></g><g fill="#00bf63" fill-opacity="1"><g transform="translate(123.359981, 115.771921)"><g><path d="M 1.28125 4.78125 L 1.28125 1.59375 L 14.140625 1.59375 L 14.140625 4.78125 Z M 1.28125 4.78125 "/></g></g></g><g fill="#00bf63" fill-opacity="1"><g transform="translate(138.779967, 115.771921)"><g/></g></g><g fill="#00bf63" fill-opacity="1"><g transform="translate(154.199953, 115.771921)"><g><path d="M 0.734375 -19.546875 L 3.90625 -21 L 14.6875 1.421875 L 11.515625 2.875 Z M 0.734375 -19.546875 "/></g></g></g><g fill="#00bf63" fill-opacity="1"><g transform="translate(169.619939, 115.771921)"><g><path d="M 9.59375 -20.8125 L 9.59375 2.703125 L 5.8125 2.703125 L 5.8125 -20.8125 Z M 9.59375 -20.8125 "/></g></g></g><g fill="#00bf63" fill-opacity="1"><g transform="translate(185.039924, 115.771921)"><g/></g></g><g fill="#00bf63" fill-opacity="1"><g transform="translate(200.45991, 115.771921)"><g><path d="M 9.59375 -20.8125 L 9.59375 2.703125 L 5.8125 2.703125 L 5.8125 -20.8125 Z M 9.59375 -20.8125 "/></g></g></g><g fill="#00bf63" fill-opacity="1"><g transform="translate(215.879896, 115.771921)"><g><path d="M 3.90625 2.875 L 0.734375 1.421875 L 11.546875 -21 L 14.6875 -19.546875 Z M 3.90625 2.875 "/></g></g></g><g fill="#00bf63" fill-opacity="1"><g transform="translate(231.299881, 115.771921)"><g/></g></g><g fill="#00bf63" fill-opacity="1"><g transform="translate(246.719867, 115.771921)"><g><path d="M 1.28125 4.78125 L 1.28125 1.59375 L 14.140625 1.59375 L 14.140625 4.78125 Z M 1.28125 4.78125 "/></g></g></g><g fill="#00bf63" fill-opacity="1"><g transform="translate(262.139853, 115.771921)"><g><path d="M 1.28125 4.78125 L 1.28125 1.59375 L 14.140625 1.59375 L 14.140625 4.78125 Z M 1.28125 4.78125 "/></g></g></g><g fill="#00bf63" fill-opacity="1"><g transform="translate(277.559839, 115.771921)"><g><path d="M 9.59375 -20.8125 L 9.59375 2.703125 L 5.8125 2.703125 L 5.8125 -20.8125 Z M 9.59375 -20.8125 "/></g></g></g><g fill="#00bf63" fill-opacity="1"><g transform="translate(292.981594, 115.771921)"><g/></g></g><g fill="#00bf63" fill-opacity="1"><g transform="translate(308.40158, 115.771921)"><g/></g></g><g fill="#00bf63" fill-opacity="1"><g transform="translate(323.821566, 115.771921)"><g/></g></g><g fill="#00bf63" fill-opacity="1"><g transform="translate(339.241551, 115.771921)"><g/></g></g><g fill="#00bf63" fill-opacity="1"><g transform="translate(354.661537, 115.771921)"><g/></g></g><g fill="#00bf63" fill-opacity="1"><g transform="translate(370.081523, 115.771921)"><g/></g></g><g fill="#00bf63" fill-opacity="1"><g transform="translate(385.501509, 115.771921)"><g/></g></g><g fill="#00bf63" fill-opacity="1"><g transform="translate(400.921494, 115.771921)"><g/></g></g><g fill="#00bf63" fill-opacity="1"><g transform="translate(416.34148, 115.771921)"><g/></g></g><g fill="#00bf63" fill-opacity="1"><g transform="translate(431.761466, 115.771921)"><g/></g></g><g fill="#00bf63" fill-opacity="1"><g transform="translate(447.181452, 115.771921)"><g/></g></g><g fill="#00bf63" fill-opacity="1"><g transform="translate(-0.00000226, 151.075136)"><g><path d="M 9.59375 -20.8125 L 9.59375 2.703125 L 5.8125 2.703125 L 5.8125 -20.8125 Z M 9.59375 -20.8125 "/></g></g></g><g fill="#00bf63" fill-opacity="1"><g transform="translate(15.420081, 151.075136)"><g/></g></g><g fill="#00bf63" fill-opacity="1"><g transform="translate(30.840067, 151.075136)"><g/></g></g><g fill="#00bf63" fill-opacity="1"><g transform="translate(46.260249, 151.075136)"><g><path d="M 1.28125 4.78125 L 1.28125 1.59375 L 14.140625 1.59375 L 14.140625 4.78125 Z M 1.28125 4.78125 "/></g></g></g><g fill="#00bf63" fill-opacity="1"><g transform="translate(61.680234, 151.075136)"><g><path d="M 1.28125 4.78125 L 1.28125 1.59375 L 14.140625 1.59375 L 14.140625 4.78125 Z M 1.28125 4.78125 "/></g></g></g><g fill="#00bf63" fill-opacity="1"><g transform="translate(77.10022, 151.075136)"><g><path d="M 3.90625 2.875 L 0.734375 1.421875 L 11.546875 -21 L 14.6875 -19.546875 Z M 3.90625 2.875 "/></g></g></g><g fill="#00bf63" fill-opacity="1"><g transform="translate(92.520206, 151.075136)"><g/></g></g><g fill="#00bf63" fill-opacity="1"><g transform="translate(107.940191, 151.075136)"><g><path d="M 9.59375 -20.8125 L 9.59375 2.703125 L 5.8125 2.703125 L 5.8125 -20.8125 Z M 9.59375 -20.8125 "/></g></g></g><g fill="#00bf63" fill-opacity="1"><g transform="translate(123.360177, 151.075136)"><g><path d="M 1.28125 4.78125 L 1.28125 1.59375 L 14.140625 1.59375 L 14.140625 4.78125 Z M 1.28125 4.78125 "/></g></g></g><g fill="#00bf63" fill-opacity="1"><g transform="translate(138.780163, 151.075136)"><g><path d="M 8.71875 -9 C 8.71875 -10.0625 8.625 -11.050781 8.4375 -11.96875 C 8.257812 -12.882812 7.972656 -13.769531 7.578125 -14.625 C 7.179688 -15.476562 6.675781 -16.335938 6.0625 -17.203125 C 5.445312 -18.066406 4.707031 -18.96875 3.84375 -19.90625 L 6.203125 -22.046875 C 7.554688 -20.878906 8.726562 -19.644531 9.71875 -18.34375 C 10.71875 -17.050781 11.488281 -15.640625 12.03125 -14.109375 C 12.570312 -12.578125 12.84375 -10.875 12.84375 -9 C 12.84375 -7.125 12.570312 -5.414062 12.03125 -3.875 C 11.488281 -2.34375 10.71875 -0.929688 9.71875 0.359375 C 8.726562 1.648438 7.554688 2.878906 6.203125 4.046875 L 3.84375 1.921875 C 5.070312 0.578125 6.039062 -0.648438 6.75 -1.765625 C 7.46875 -2.878906 7.972656 -4.007812 8.265625 -5.15625 C 8.566406 -6.300781 8.71875 -7.582031 8.71875 -9 Z M 8.71875 -9 "/></g></g></g><g fill="#00bf63" fill-opacity="1"><g transform="translate(154.200149, 151.075136)"><g/></g></g><g fill="#00bf63" fill-opacity="1"><g transform="translate(169.620134, 151.075136)"><g><path d="M 9.59375 -20.8125 L 9.59375 2.703125 L 5.8125 2.703125 L 5.8125 -20.8125 Z M 9.59375 -20.8125 "/></g></g></g><g fill="#00bf63" fill-opacity="1"><g transform="translate(185.04012, 151.075136)"><g/></g></g><g fill="#00bf63" fill-opacity="1"><g transform="translate(200.460106, 151.075136)"><g><path d="M 9.59375 -20.8125 L 9.59375 2.703125 L 5.8125 2.703125 L 5.8125 -20.8125 Z M 9.59375 -20.8125 "/></g></g></g><g fill="#00bf63" fill-opacity="1"><g transform="translate(215.880092, 151.075136)"><g/></g></g><g fill="#00bf63" fill-opacity="1"><g transform="translate(231.300077, 151.075136)"><g><path d="M 6.703125 -9 C 6.703125 -7.582031 6.847656 -6.300781 7.140625 -5.15625 C 7.441406 -4.007812 7.945312 -2.878906 8.65625 -1.765625 C 9.375 -0.648438 10.347656 0.578125 11.578125 1.921875 L 9.21875 4.046875 C 7.863281 2.878906 6.6875 1.648438 5.6875 0.359375 C 4.695312 -0.929688 3.929688 -2.34375 3.390625 -3.875 C 2.847656 -5.414062 2.578125 -7.125 2.578125 -9 C 2.578125 -10.875 2.847656 -12.578125 3.390625 -14.109375 C 3.929688 -15.640625 4.695312 -17.050781 5.6875 -18.34375 C 6.6875 -19.644531 7.863281 -20.878906 9.21875 -22.046875 L 11.578125 -19.90625 C 10.710938 -18.96875 9.972656 -18.066406 9.359375 -17.203125 C 8.742188 -16.335938 8.238281 -15.476562 7.84375 -14.625 C 7.445312 -13.769531 7.15625 -12.882812 6.96875 -11.96875 C 6.789062 -11.050781 6.703125 -10.0625 6.703125 -9 Z M 6.703125 -9 "/></g></g></g><g fill="#00bf63" fill-opacity="1"><g transform="translate(246.720063, 151.075136)"><g><path d="M 1.28125 4.78125 L 1.28125 1.59375 L 14.140625 1.59375 L 14.140625 4.78125 Z M 1.28125 4.78125 "/></g></g></g><g fill="#00bf63" fill-opacity="1"><g transform="translate(262.140049, 151.075136)"><g><path d="M 1.28125 4.78125 L 1.28125 1.59375 L 14.140625 1.59375 L 14.140625 4.78125 Z M 1.28125 4.78125 "/></g></g></g><g fill="#00bf63" fill-opacity="1"><g transform="translate(277.561503, 151.075136)"><g/></g></g><g fill="#00bf63" fill-opacity="1"><g transform="translate(292.981488, 151.075136)"><g/></g></g><g fill="#00bf63" fill-opacity="1"><g transform="translate(308.401474, 151.075136)"><g/></g></g><g fill="#00bf63" fill-opacity="1"><g transform="translate(323.82146, 151.075136)"><g/></g></g><g fill="#00bf63" fill-opacity="1"><g transform="translate(339.241446, 151.075136)"><g/></g></g><g fill="#00bf63" fill-opacity="1"><g transform="translate(354.661431, 151.075136)"><g/></g></g><g fill="#00bf63" fill-opacity="1"><g transform="translate(370.081417, 151.075136)"><g/></g></g><g fill="#00bf63" fill-opacity="1"><g transform="translate(385.501403, 151.075136)"><g/></g></g><g fill="#00bf63" fill-opacity="1"><g transform="translate(400.921388, 151.075136)"><g/></g></g><g fill="#00bf63" fill-opacity="1"><g transform="translate(15.420081, 186.378352)"><g><path d="M 0.734375 -19.546875 L 3.90625 -21 L 14.6875 1.421875 L 11.515625 2.875 Z M 0.734375 -19.546875 "/></g></g></g><g fill="#00bf63" fill-opacity="1"><g transform="translate(30.840067, 186.378352)"><g><path d="M 1.28125 4.78125 L 1.28125 1.59375 L 14.140625 1.59375 L 14.140625 4.78125 Z M 1.28125 4.78125 "/></g></g></g><g fill="#00bf63" fill-opacity="1"><g transform="translate(46.260053, 186.378352)"><g><path d="M 1.28125 4.78125 L 1.28125 1.59375 L 14.140625 1.59375 L 14.140625 4.78125 Z M 1.28125 4.78125 "/></g></g></g><g fill="#00bf63" fill-opacity="1"><g transform="translate(61.680039, 186.378352)"><g><path d="M 1.28125 4.78125 L 1.28125 1.59375 L 14.140625 1.59375 L 14.140625 4.78125 Z M 1.28125 4.78125 "/></g></g></g><g fill="#00bf63" fill-opacity="1"><g transform="translate(77.100024, 186.378352)"><g><path d="M 9.59375 -20.8125 L 9.59375 2.703125 L 5.8125 2.703125 L 5.8125 -20.8125 Z M 9.59375 -20.8125 "/></g></g></g><g fill="#00bf63" fill-opacity="1"><g transform="translate(92.52001, 186.378352)"><g/></g></g><g fill="#00bf63" fill-opacity="1"><g transform="translate(107.939996, 186.378352)"><g><path d="M 4.84375 -2.421875 C 4.84375 -2.953125 4.96875 -3.429688 5.21875 -3.859375 C 5.476562 -4.296875 5.828125 -4.644531 6.265625 -4.90625 C 6.703125 -5.164062 7.179688 -5.296875 7.703125 -5.296875 C 8.234375 -5.296875 8.71875 -5.164062 9.15625 -4.90625 C 9.59375 -4.644531 9.9375 -4.296875 10.1875 -3.859375 C 10.445312 -3.429688 10.578125 -2.953125 10.578125 -2.421875 C 10.578125 -1.910156 10.445312 -1.4375 10.1875 -1 C 9.9375 -0.5625 9.59375 -0.210938 9.15625 0.046875 C 8.71875 0.304688 8.234375 0.4375 7.703125 0.4375 C 7.179688 0.4375 6.703125 0.304688 6.265625 0.046875 C 5.828125 -0.210938 5.476562 -0.5625 5.21875 -1 C 4.96875 -1.4375 4.84375 -1.910156 4.84375 -2.421875 Z M 4.84375 -2.421875 "/></g></g></g><g fill="#00bf63" fill-opacity="1"><g transform="translate(123.359981, 186.378352)"><g><path d="M 1.28125 4.78125 L 1.28125 1.59375 L 14.140625 1.59375 L 14.140625 4.78125 Z M 1.28125 4.78125 "/></g></g></g><g fill="#00bf63" fill-opacity="1"><g transform="translate(138.779967, 186.378352)"><g><path d="M 1.28125 4.78125 L 1.28125 1.59375 L 14.140625 1.59375 L 14.140625 4.78125 Z M 1.28125 4.78125 "/></g></g></g><g fill="#00bf63" fill-opacity="1"><g transform="translate(154.199953, 186.378352)"><g><path d="M 3.90625 2.875 L 0.734375 1.421875 L 11.546875 -21 L 14.6875 -19.546875 Z M 3.90625 2.875 "/></g></g></g><g fill="#00bf63" fill-opacity="1"><g transform="translate(169.619939, 186.378352)"><g><path d="M 9.59375 -20.8125 L 9.59375 2.703125 L 5.8125 2.703125 L 5.8125 -20.8125 Z M 9.59375 -20.8125 "/></g></g></g><g fill="#00bf63" fill-opacity="1"><g transform="translate(185.039924, 186.378352)"><g><path d="M 1.28125 4.78125 L 1.28125 1.59375 L 14.140625 1.59375 L 14.140625 4.78125 Z M 1.28125 4.78125 "/></g></g></g><g fill="#00bf63" fill-opacity="1"><g transform="translate(200.45991, 186.378352)"><g><path d="M 9.59375 -20.8125 L 9.59375 2.703125 L 5.8125 2.703125 L 5.8125 -20.8125 Z M 9.59375 -20.8125 "/></g></g></g><g fill="#00bf63" fill-opacity="1"><g transform="translate(215.879896, 186.378352)"><g><path d="M 0.734375 -19.546875 L 3.90625 -21 L 14.6875 1.421875 L 11.515625 2.875 Z M 0.734375 -19.546875 "/></g></g></g><g fill="#00bf63" fill-opacity="1"><g transform="translate(231.299881, 186.378352)"><g><path d="M 1.28125 4.78125 L 1.28125 1.59375 L 14.140625 1.59375 L 14.140625 4.78125 Z M 1.28125 4.78125 "/></g></g></g><g fill="#00bf63" fill-opacity="1"><g transform="translate(246.719867, 186.378352)"><g><path d="M 1.28125 4.78125 L 1.28125 1.59375 L 14.140625 1.59375 L 14.140625 4.78125 Z M 1.28125 4.78125 "/></g></g></g><g fill="#00bf63" fill-opacity="1"><g transform="translate(262.139853, 186.378352)"><g><path d="M 1.28125 4.78125 L 1.28125 1.59375 L 14.140625 1.59375 L 14.140625 4.78125 Z M 1.28125 4.78125 "/></g></g></g><g fill="#00bf63" fill-opacity="1"><g transform="translate(277.559839, 186.378352)"><g><path d="M 9.59375 -20.8125 L 9.59375 2.703125 L 5.8125 2.703125 L 5.8125 -20.8125 Z M 9.59375 -20.8125 "/></g></g></g><g fill="#00bf63" fill-opacity="1"><g transform="translate(292.981594, 186.378352)"><g/></g></g><g fill="#00bf63" fill-opacity="1"><g transform="translate(308.40158, 186.378352)"><g/></g></g><g fill="#00bf63" fill-opacity="1"><g transform="translate(323.821566, 186.378352)"><g/></g></g><g fill="#00bf63" fill-opacity="1"><g transform="translate(339.241551, 186.378352)"><g/></g></g><g fill="#00bf63" fill-opacity="1"><g transform="translate(354.661537, 186.378352)"><g/></g></g><g fill="#00bf63" fill-opacity="1"><g transform="translate(370.081523, 186.378352)"><g/></g></g><g fill="#00bf63" fill-opacity="1"><g transform="translate(385.501509, 186.378352)"><g/></g></g><g fill="#00bf63" fill-opacity="1"><g transform="translate(15.419983, 221.681568)"><g/></g></g><g fill="#00bf63" fill-opacity="1"><g transform="translate(30.839969, 221.681568)"><g/></g></g><g fill="#00bf63" fill-opacity="1"><g transform="translate(46.259955, 221.681568)"><g/></g></g><g fill="#00bf63" fill-opacity="1"><g transform="translate(61.679941, 221.681568)"><g/></g></g><g fill="#00bf63" fill-opacity="1"><g transform="translate(77.100416, 221.681568)"><g><path d="M 9.59375 -20.8125 L 9.59375 2.703125 L 5.8125 2.703125 L 5.8125 -20.8125 Z M 9.59375 -20.8125 "/></g></g></g><g fill="#00bf63" fill-opacity="1"><g transform="translate(92.520402, 221.681568)"><g/></g></g><g fill="#00bf63" fill-opacity="1"><g transform="translate(107.940387, 221.681568)"><g><path d="M 9.59375 -20.8125 L 9.59375 2.703125 L 5.8125 2.703125 L 5.8125 -20.8125 Z M 9.59375 -20.8125 "/></g></g></g><g fill="#00bf63" fill-opacity="1"><g transform="translate(15.419983, 256.984784)"><g/></g></g><g fill="#00bf63" fill-opacity="1"><g transform="translate(30.839969, 256.984784)"><g/></g></g><g fill="#00bf63" fill-opacity="1"><g transform="translate(46.259955, 256.984784)"><g/></g></g><g fill="#00bf63" fill-opacity="1"><g transform="translate(61.679941, 256.984784)"><g/></g></g><g fill="#00bf63" fill-opacity="1"><g transform="translate(77.100416, 256.984784)"><g><path d="M 9.59375 -20.8125 L 9.59375 2.703125 L 5.8125 2.703125 L 5.8125 -20.8125 Z M 9.59375 -20.8125 "/></g></g></g><g fill="#00bf63" fill-opacity="1"><g transform="translate(92.520402, 256.984784)"><g><path d="M 1.28125 4.78125 L 1.28125 1.59375 L 14.140625 1.59375 L 14.140625 4.78125 Z M 1.28125 4.78125 "/></g></g></g><g fill="#00bf63" fill-opacity="1"><g transform="translate(107.940387, 256.984784)"><g><path d="M 9.59375 -20.8125 L 9.59375 2.703125 L 5.8125 2.703125 L 5.8125 -20.8125 Z M 9.59375 -20.8125 "/></g></g></g></g></g></g></g></g></g><g clip-path="url(#1d72b6d74f)"><g transform="matrix(1, 0, 0, 1, 0, 93)"><g clip-path="url(#4e5ca9ce3f)"><g fill="#ff4e1f" fill-opacity="1"><g transform="translate(15.173467, 23.855856)"><g/></g></g><g fill="#ff4e1f" fill-opacity="1"><g transform="translate(30.346937, 23.855856)"><g/></g></g><g fill="#ff4e1f" fill-opacity="1"><g transform="translate(45.520406, 23.855856)"><g/></g></g><g fill="#ff4e1f" fill-opacity="1"><g transform="translate(60.693876, 23.855856)"><g/></g></g><g fill="#ff4e1f" fill-opacity="1"><g transform="translate(75.867345, 23.855856)"><g/></g></g><g fill="#ff4e1f" fill-opacity="1"><g transform="translate(91.040815, 23.855856)"><g/></g></g><g fill="#ff4e1f" fill-opacity="1"><g transform="translate(106.214284, 23.855856)"><g/></g></g><g fill="#ff4e1f" fill-opacity="1"><g transform="translate(121.387753, 23.855856)"><g/></g></g><g fill="#ff4e1f" fill-opacity="1"><g transform="translate(136.561223, 23.855856)"><g/></g></g><g fill="#ff4e1f" fill-opacity="1"><g transform="translate(151.734692, 23.855856)"><g/></g></g><g fill="#ff4e1f" fill-opacity="1"><g transform="translate(15.173467, 58.594686)"><g/></g></g><g fill="#ff4e1f" fill-opacity="1"><g transform="translate(30.346937, 58.594686)"><g/></g></g><g fill="#ff4e1f" fill-opacity="1"><g transform="translate(45.520406, 58.594686)"><g/></g></g><g fill="#ff4e1f" fill-opacity="1"><g transform="translate(60.693876, 58.594686)"><g/></g></g><g fill="#ff4e1f" fill-opacity="1"><g transform="translate(75.867345, 58.594686)"><g/></g></g><g fill="#ff4e1f" fill-opacity="1"><g transform="translate(91.040815, 58.594686)"><g/></g></g><g fill="#ff4e1f" fill-opacity="1"><g transform="translate(106.214284, 58.594686)"><g/></g></g><g fill="#ff4e1f" fill-opacity="1"><g transform="translate(121.387753, 58.594686)"><g/></g></g><g fill="#ff4e1f" fill-opacity="1"><g transform="translate(136.561223, 58.594686)"><g/></g></g><g fill="#ff4e1f" fill-opacity="1"><g transform="translate(151.735656, 58.594686)"><g/></g></g><g fill="#ff4e1f" fill-opacity="1"><g transform="translate(166.909125, 58.594686)"><g/></g></g><g fill="#ff4e1f" fill-opacity="1"><g transform="translate(182.082595, 58.594686)"><g/></g></g><g fill="#ff4e1f" fill-opacity="1"><g transform="translate(197.256064, 58.594686)"><g/></g></g><g fill="#ff4e1f" fill-opacity="1"><g transform="translate(212.429533, 58.594686)"><g/></g></g><g fill="#ff4e1f" fill-opacity="1"><g transform="translate(227.603003, 58.594686)"><g/></g></g><g fill="#ff4e1f" fill-opacity="1"><g transform="translate(242.776472, 58.594686)"><g/></g></g><g fill="#ff4e1f" fill-opacity="1"><g transform="translate(257.949942, 58.594686)"><g/></g></g><g fill="#ff4e1f" fill-opacity="1"><g transform="translate(273.123411, 58.594686)"><g/></g></g><g fill="#ff4e1f" fill-opacity="1"><g transform="translate(288.296881, 58.594686)"><g/></g></g><g fill="#ff4e1f" fill-opacity="1"><g transform="translate(303.47035, 58.594686)"><g/></g></g><g fill="#ff4e1f" fill-opacity="1"><g transform="translate(318.64382, 58.594686)"><g/></g></g><g fill="#ff4e1f" fill-opacity="1"><g transform="translate(333.818445, 58.594686)"><g><path d="M 1.265625 4.703125 L 1.265625 1.5625 L 13.90625 1.5625 L 13.90625 4.703125 Z M 1.265625 4.703125 "/></g></g></g><g fill="#ff4e1f" fill-opacity="1"><g transform="translate(348.992019, 58.594686)"><g/></g></g><g fill="#ff4e1f" fill-opacity="1"><g transform="translate(364.165488, 58.594686)"><g/></g></g><g fill="#ff4e1f" fill-opacity="1"><g transform="translate(379.338958, 58.594686)"><g/></g></g><g fill="#ff4e1f" fill-opacity="1"><g transform="translate(394.512427, 58.594686)"><g/></g></g><g fill="#ff4e1f" fill-opacity="1"><g transform="translate(409.685897, 58.594686)"><g/></g></g><g fill="#ff4e1f" fill-opacity="1"><g transform="translate(424.859366, 58.594686)"><g/></g></g><g fill="#ff4e1f" fill-opacity="1"><g transform="translate(440.032836, 58.594686)"><g/></g></g><g fill="#ff4e1f" fill-opacity="1"><g transform="translate(15.173467, 93.333516)"><g/></g></g><g fill="#ff4e1f" fill-opacity="1"><g transform="translate(30.346937, 93.333516)"><g/></g></g><g fill="#ff4e1f" fill-opacity="1"><g transform="translate(45.520406, 93.333516)"><g/></g></g><g fill="#ff4e1f" fill-opacity="1"><g transform="translate(60.693876, 93.333516)"><g/></g></g><g fill="#ff4e1f" fill-opacity="1"><g transform="translate(75.867345, 93.333516)"><g/></g></g><g fill="#ff4e1f" fill-opacity="1"><g transform="translate(91.041392, 93.333516)"><g/></g></g><g fill="#ff4e1f" fill-opacity="1"><g transform="translate(106.214958, 93.333516)"><g/></g></g><g fill="#ff4e1f" fill-opacity="1"><g transform="translate(121.388428, 93.333516)"><g/></g></g><g fill="#ff4e1f" fill-opacity="1"><g transform="translate(136.561897, 93.333516)"><g/></g></g><g fill="#ff4e1f" fill-opacity="1"><g transform="translate(151.735367, 93.333516)"><g/></g></g><g fill="#ff4e1f" fill-opacity="1"><g transform="translate(166.908836, 93.333516)"><g/></g></g><g fill="#ff4e1f" fill-opacity="1"><g transform="translate(182.082306, 93.333516)"><g/></g></g><g fill="#ff4e1f" fill-opacity="1"><g transform="translate(197.255775, 93.333516)"><g/></g></g><g fill="#ff4e1f" fill-opacity="1"><g transform="translate(212.429245, 93.333516)"><g/></g></g><g fill="#ff4e1f" fill-opacity="1"><g transform="translate(227.602714, 93.333516)"><g/></g></g><g fill="#ff4e1f" fill-opacity="1"><g transform="translate(242.776183, 93.333516)"><g/></g></g><g fill="#ff4e1f" fill-opacity="1"><g transform="translate(257.949653, 93.333516)"><g/></g></g><g fill="#ff4e1f" fill-opacity="1"><g transform="translate(273.123122, 93.333516)"><g/></g></g><g fill="#ff4e1f" fill-opacity="1"><g transform="translate(288.296592, 93.333516)"><g/></g></g><g fill="#ff4e1f" fill-opacity="1"><g transform="translate(303.470061, 93.333516)"><g/></g></g><g fill="#ff4e1f" fill-opacity="1"><g transform="translate(318.644887, 93.333516)"><g><path d="M 9.4375 -20.484375 L 9.4375 2.65625 L 5.71875 2.65625 L 5.71875 -20.484375 Z M 9.4375 -20.484375 "/></g></g></g><g fill="#ff4e1f" fill-opacity="1"><g transform="translate(333.818357, 93.333516)"><g/></g></g><g fill="#ff4e1f" fill-opacity="1"><g transform="translate(348.991826, 93.333516)"><g><path d="M 9.4375 -20.484375 L 9.4375 2.65625 L 5.71875 2.65625 L 5.71875 -20.484375 Z M 9.4375 -20.484375 "/></g></g></g><g fill="#ff4e1f" fill-opacity="1"><g transform="translate(364.165577, 93.333516)"><g/></g></g><g fill="#ff4e1f" fill-opacity="1"><g transform="translate(379.339046, 93.333516)"><g/></g></g><g fill="#ff4e1f" fill-opacity="1"><g transform="translate(394.512516, 93.333516)"><g/></g></g><g fill="#ff4e1f" fill-opacity="1"><g transform="translate(409.685985, 93.333516)"><g/></g></g><g fill="#ff4e1f" fill-opacity="1"><g transform="translate(424.859455, 93.333516)"><g/></g></g><g fill="#ff4e1f" fill-opacity="1"><g transform="translate(440.032924, 93.333516)"><g/></g></g><g fill="#ff4e1f" fill-opacity="1"><g transform="translate(15.173467, 128.072346)"><g/></g></g><g fill="#ff4e1f" fill-opacity="1"><g transform="translate(30.347129, 128.072346)"><g><path d="M 1.265625 4.703125 L 1.265625 1.5625 L 13.90625 1.5625 L 13.90625 4.703125 Z M 1.265625 4.703125 "/></g></g></g><g fill="#ff4e1f" fill-opacity="1"><g transform="translate(45.520599, 128.072346)"><g><path d="M 1.265625 4.703125 L 1.265625 1.5625 L 13.90625 1.5625 L 13.90625 4.703125 Z M 1.265625 4.703125 "/></g></g></g><g fill="#ff4e1f" fill-opacity="1"><g transform="translate(60.694068, 128.072346)"><g><path d="M 1.265625 4.703125 L 1.265625 1.5625 L 13.90625 1.5625 L 13.90625 4.703125 Z M 1.265625 4.703125 "/></g></g></g><g fill="#ff4e1f" fill-opacity="1"><g transform="translate(75.867827, 128.072346)"><g/></g></g><g fill="#ff4e1f" fill-opacity="1"><g transform="translate(91.041296, 128.072346)"><g/></g></g><g fill="#ff4e1f" fill-opacity="1"><g transform="translate(106.214766, 128.072346)"><g/></g></g><g fill="#ff4e1f" fill-opacity="1"><g transform="translate(121.388235, 128.072346)"><g/></g></g><g fill="#ff4e1f" fill-opacity="1"><g transform="translate(136.561705, 128.072346)"><g/></g></g><g fill="#ff4e1f" fill-opacity="1"><g transform="translate(151.735656, 128.072346)"><g><path d="M 1.265625 4.703125 L 1.265625 1.5625 L 13.90625 1.5625 L 13.90625 4.703125 Z M 1.265625 4.703125 "/></g></g></g><g fill="#ff4e1f" fill-opacity="1"><g transform="translate(166.909125, 128.072346)"><g><path d="M 1.265625 4.703125 L 1.265625 1.5625 L 13.90625 1.5625 L 13.90625 4.703125 Z M 1.265625 4.703125 "/></g></g></g><g fill="#ff4e1f" fill-opacity="1"><g transform="translate(182.082595, 128.072346)"><g><path d="M 1.265625 4.703125 L 1.265625 1.5625 L 13.90625 1.5625 L 13.90625 4.703125 Z M 1.265625 4.703125 "/></g></g></g><g fill="#ff4e1f" fill-opacity="1"><g transform="translate(197.256064, 128.072346)"><g><path d="M 1.265625 4.703125 L 1.265625 1.5625 L 13.90625 1.5625 L 13.90625 4.703125 Z M 1.265625 4.703125 "/></g></g></g><g fill="#ff4e1f" fill-opacity="1"><g transform="translate(212.429533, 128.072346)"><g><path d="M 1.265625 4.703125 L 1.265625 1.5625 L 13.90625 1.5625 L 13.90625 4.703125 Z M 1.265625 4.703125 "/></g></g></g><g fill="#ff4e1f" fill-opacity="1"><g transform="translate(227.603003, 128.072346)"><g/></g></g><g fill="#ff4e1f" fill-opacity="1"><g transform="translate(242.776472, 128.072346)"><g><path d="M 1.265625 4.703125 L 1.265625 1.5625 L 13.90625 1.5625 L 13.90625 4.703125 Z M 1.265625 4.703125 "/></g></g></g><g fill="#ff4e1f" fill-opacity="1"><g transform="translate(257.949942, 128.072346)"><g/></g></g><g fill="#ff4e1f" fill-opacity="1"><g transform="translate(273.123411, 128.072346)"><g><path d="M 1.265625 4.703125 L 1.265625 1.5625 L 13.90625 1.5625 L 13.90625 4.703125 Z M 1.265625 4.703125 "/></g></g></g><g fill="#ff4e1f" fill-opacity="1"><g transform="translate(288.296881, 128.072346)"><g><path d="M 1.265625 4.703125 L 1.265625 1.5625 L 13.90625 1.5625 L 13.90625 4.703125 Z M 1.265625 4.703125 "/></g></g></g><g fill="#ff4e1f" fill-opacity="1"><g transform="translate(303.47035, 128.072346)"><g/></g></g><g fill="#ff4e1f" fill-opacity="1"><g transform="translate(318.64382, 128.072346)"><g><path d="M 9.4375 -20.484375 L 9.4375 2.65625 L 5.71875 2.65625 L 5.71875 -20.484375 Z M 9.4375 -20.484375 "/></g></g></g><g fill="#ff4e1f" fill-opacity="1"><g transform="translate(333.817289, 128.072346)"><g/></g></g><g fill="#ff4e1f" fill-opacity="1"><g transform="translate(348.990759, 128.072346)"><g><path d="M 9.4375 -20.484375 L 9.4375 2.65625 L 5.71875 2.65625 L 5.71875 -20.484375 Z M 9.4375 -20.484375 "/></g></g></g><g fill="#ff4e1f" fill-opacity="1"><g transform="translate(364.164228, 128.072346)"><g><path d="M 1.265625 4.703125 L 1.265625 1.5625 L 13.90625 1.5625 L 13.90625 4.703125 Z M 1.265625 4.703125 "/></g></g></g><g fill="#ff4e1f" fill-opacity="1"><g transform="translate(379.337698, 128.072346)"><g/></g></g><g fill="#ff4e1f" fill-opacity="1"><g transform="translate(394.511167, 128.072346)"><g><path d="M 1.265625 4.703125 L 1.265625 1.5625 L 13.90625 1.5625 L 13.90625 4.703125 Z M 1.265625 4.703125 "/></g></g></g><g fill="#ff4e1f" fill-opacity="1"><g transform="translate(409.684637, 128.072346)"><g><path d="M 1.265625 4.703125 L 1.265625 1.5625 L 13.90625 1.5625 L 13.90625 4.703125 Z M 1.265625 4.703125 "/></g></g></g><g fill="#ff4e1f" fill-opacity="1"><g transform="translate(424.858106, 128.072346)"><g><path d="M 1.265625 4.703125 L 1.265625 1.5625 L 13.90625 1.5625 L 13.90625 4.703125 Z M 1.265625 4.703125 "/></g></g></g><g fill="#ff4e1f" fill-opacity="1"><g transform="translate(440.033414, 128.072346)"><g/></g></g><g fill="#ff4e1f" fill-opacity="1"><g transform="translate(15.173564, 162.811177)"><g><path d="M 3.84375 2.828125 L 0.71875 1.40625 L 11.359375 -20.671875 L 14.453125 -19.234375 Z M 3.84375 2.828125 "/></g></g></g><g fill="#ff4e1f" fill-opacity="1"><g transform="translate(30.347033, 162.811177)"><g/></g></g><g fill="#ff4e1f" fill-opacity="1"><g transform="translate(45.520502, 162.811177)"><g><path d="M 1.265625 4.703125 L 1.265625 1.5625 L 13.90625 1.5625 L 13.90625 4.703125 Z M 1.265625 4.703125 "/></g></g></g><g fill="#ff4e1f" fill-opacity="1"><g transform="translate(60.694261, 162.811177)"><g/></g></g><g fill="#ff4e1f" fill-opacity="1"><g transform="translate(75.86773, 162.811177)"><g/></g></g><g fill="#ff4e1f" fill-opacity="1"><g transform="translate(91.0412, 162.811177)"><g/></g></g><g fill="#ff4e1f" fill-opacity="1"><g transform="translate(106.214669, 162.811177)"><g/></g></g><g fill="#ff4e1f" fill-opacity="1"><g transform="translate(121.388139, 162.811177)"><g/></g></g><g fill="#ff4e1f" fill-opacity="1"><g transform="translate(136.56209, 162.811177)"><g><path d="M 3.84375 2.828125 L 0.71875 1.40625 L 11.359375 -20.671875 L 14.453125 -19.234375 Z M 3.84375 2.828125 "/></g></g></g><g fill="#ff4e1f" fill-opacity="1"><g transform="translate(151.735559, 162.811177)"><g/></g></g><g fill="#ff4e1f" fill-opacity="1"><g transform="translate(166.909029, 162.811177)"><g><path d="M 3.84375 2.828125 L 0.71875 1.40625 L 11.359375 -20.671875 L 14.453125 -19.234375 Z M 3.84375 2.828125 "/></g></g></g><g fill="#ff4e1f" fill-opacity="1"><g transform="translate(182.082498, 162.811177)"><g/></g></g><g fill="#ff4e1f" fill-opacity="1"><g transform="translate(197.255968, 162.811177)"><g><path d="M 1.265625 4.703125 L 1.265625 1.5625 L 13.90625 1.5625 L 13.90625 4.703125 Z M 1.265625 4.703125 "/></g></g></g><g fill="#ff4e1f" fill-opacity="1"><g transform="translate(212.429437, 162.811177)"><g/></g></g><g fill="#ff4e1f" fill-opacity="1"><g transform="translate(227.602907, 162.811177)"><g><path d="M 0.71875 -19.234375 L 3.84375 -20.671875 L 14.453125 1.40625 L 11.328125 2.828125 Z M 0.71875 -19.234375 "/></g></g></g><g fill="#ff4e1f" fill-opacity="1"><g transform="translate(242.776376, 162.811177)"><g/></g></g><g fill="#ff4e1f" fill-opacity="1"><g transform="translate(257.949846, 162.811177)"><g><path d="M 6.15625 -11.703125 L 5.671875 -18.765625 L 9.46875 -18.765625 L 9 -11.703125 Z M 6.15625 -11.703125 "/></g></g></g><g fill="#ff4e1f" fill-opacity="1"><g transform="translate(273.123315, 162.811177)"><g><path d="M 1.265625 4.703125 L 1.265625 1.5625 L 13.90625 1.5625 L 13.90625 4.703125 Z M 1.265625 4.703125 "/></g></g></g><g fill="#ff4e1f" fill-opacity="1"><g transform="translate(288.296785, 162.811177)"><g/></g></g><g fill="#ff4e1f" fill-opacity="1"><g transform="translate(303.470254, 162.811177)"><g><path d="M 0.71875 -19.234375 L 3.84375 -20.671875 L 14.453125 1.40625 L 11.328125 2.828125 Z M 0.71875 -19.234375 "/></g></g></g><g fill="#ff4e1f" fill-opacity="1"><g transform="translate(318.643723, 162.811177)"><g><path d="M 9.4375 -20.484375 L 9.4375 2.65625 L 5.71875 2.65625 L 5.71875 -20.484375 Z M 9.4375 -20.484375 "/></g></g></g><g fill="#ff4e1f" fill-opacity="1"><g transform="translate(333.817193, 162.811177)"><g/></g></g><g fill="#ff4e1f" fill-opacity="1"><g transform="translate(348.990662, 162.811177)"><g><path d="M 1.265625 4.703125 L 1.265625 1.5625 L 13.90625 1.5625 L 13.90625 4.703125 Z M 1.265625 4.703125 "/></g></g></g><g fill="#ff4e1f" fill-opacity="1"><g transform="translate(364.164132, 162.811177)"><g><path d="M 1.265625 4.703125 L 1.265625 1.5625 L 13.90625 1.5625 L 13.90625 4.703125 Z M 1.265625 4.703125 "/></g></g></g><g fill="#ff4e1f" fill-opacity="1"><g transform="translate(379.337601, 162.811177)"><g><path d="M 3.84375 2.828125 L 0.71875 1.40625 L 11.359375 -20.671875 L 14.453125 -19.234375 Z M 3.84375 2.828125 "/></g></g></g><g fill="#ff4e1f" fill-opacity="1"><g transform="translate(394.511071, 162.811177)"><g/></g></g><g fill="#ff4e1f" fill-opacity="1"><g transform="translate(409.68454, 162.811177)"><g><path d="M 1.265625 4.703125 L 1.265625 1.5625 L 13.90625 1.5625 L 13.90625 4.703125 Z M 1.265625 4.703125 "/></g></g></g><g fill="#ff4e1f" fill-opacity="1"><g transform="translate(424.85801, 162.811177)"><g><path d="M 1.265625 4.703125 L 1.265625 1.5625 L 13.90625 1.5625 L 13.90625 4.703125 Z M 1.265625 4.703125 "/></g></g></g><g fill="#ff4e1f" fill-opacity="1"><g transform="translate(440.031479, 162.811177)"><g><path d="M 9.4375 -20.484375 L 9.4375 2.65625 L 5.71875 2.65625 L 5.71875 -20.484375 Z M 9.4375 -20.484375 "/></g></g></g><g fill="#ff4e1f" fill-opacity="1"><g transform="translate(-0.00000226, 197.550007)"><g><path d="M 9.4375 -20.484375 L 9.4375 2.65625 L 5.71875 2.65625 L 5.71875 -20.484375 Z M 9.4375 -20.484375 "/></g></g></g><g fill="#ff4e1f" fill-opacity="1"><g transform="translate(15.173564, 197.550007)"><g/></g></g><g fill="#ff4e1f" fill-opacity="1"><g transform="translate(30.347033, 197.550007)"><g/></g></g><g fill="#ff4e1f" fill-opacity="1"><g transform="translate(45.520695, 197.550007)"><g><path d="M 1.265625 4.703125 L 1.265625 1.5625 L 13.90625 1.5625 L 13.90625 4.703125 Z M 1.265625 4.703125 "/></g></g></g><g fill="#ff4e1f" fill-opacity="1"><g transform="translate(60.694165, 197.550007)"><g><path d="M 1.265625 4.703125 L 1.265625 1.5625 L 13.90625 1.5625 L 13.90625 4.703125 Z M 1.265625 4.703125 "/></g></g></g><g fill="#ff4e1f" fill-opacity="1"><g transform="translate(75.867634, 197.550007)"><g><path d="M 3.84375 2.828125 L 0.71875 1.40625 L 11.359375 -20.671875 L 14.453125 -19.234375 Z M 3.84375 2.828125 "/></g></g></g><g fill="#ff4e1f" fill-opacity="1"><g transform="translate(91.041104, 197.550007)"><g><path d="M 0.71875 -19.234375 L 3.84375 -20.671875 L 14.453125 1.40625 L 11.328125 2.828125 Z M 0.71875 -19.234375 "/></g></g></g><g fill="#ff4e1f" fill-opacity="1"><g transform="translate(106.214573, 197.550007)"><g/></g></g><g fill="#ff4e1f" fill-opacity="1"><g transform="translate(121.388524, 197.550007)"><g><path d="M 7.671875 -3.234375 L 10.96875 -17.53125 L 15.21875 -17.53125 L 10.15625 0 L 5.015625 0 L -0.015625 -17.53125 L 4.390625 -17.53125 Z M 7.671875 -3.234375 "/></g></g></g><g fill="#ff4e1f" fill-opacity="1"><g transform="translate(136.561994, 197.550007)"><g/></g></g><g fill="#ff4e1f" fill-opacity="1"><g transform="translate(151.735463, 197.550007)"><g><path d="M 3.84375 2.828125 L 0.71875 1.40625 L 11.359375 -20.671875 L 14.453125 -19.234375 Z M 3.84375 2.828125 "/></g></g></g><g fill="#ff4e1f" fill-opacity="1"><g transform="translate(166.909221, 197.550007)"><g/></g></g><g fill="#ff4e1f" fill-opacity="1"><g transform="translate(182.082691, 197.550007)"><g/></g></g><g fill="#ff4e1f" fill-opacity="1"><g transform="translate(197.256353, 197.550007)"><g><path d="M 1.265625 4.703125 L 1.265625 1.5625 L 13.90625 1.5625 L 13.90625 4.703125 Z M 1.265625 4.703125 "/></g></g></g><g fill="#ff4e1f" fill-opacity="1"><g transform="translate(212.429822, 197.550007)"><g><path d="M 1.265625 4.703125 L 1.265625 1.5625 L 13.90625 1.5625 L 13.90625 4.703125 Z M 1.265625 4.703125 "/></g></g></g><g fill="#ff4e1f" fill-opacity="1"><g transform="translate(227.603292, 197.550007)"><g><path d="M 3.84375 2.828125 L 0.71875 1.40625 L 11.359375 -20.671875 L 14.453125 -19.234375 Z M 3.84375 2.828125 "/></g></g></g><g fill="#ff4e1f" fill-opacity="1"><g transform="translate(242.776761, 197.550007)"><g/></g></g><g fill="#ff4e1f" fill-opacity="1"><g transform="translate(257.950231, 197.550007)"><g><path d="M 9.4375 -20.484375 L 9.4375 2.65625 L 5.71875 2.65625 L 5.71875 -20.484375 Z M 9.4375 -20.484375 "/></g></g></g><g fill="#ff4e1f" fill-opacity="1"><g transform="translate(273.1237, 197.550007)"><g/></g></g><g fill="#ff4e1f" fill-opacity="1"><g transform="translate(288.29717, 197.550007)"><g><path d="M 9.4375 -20.484375 L 9.4375 2.65625 L 5.71875 2.65625 L 5.71875 -20.484375 Z M 9.4375 -20.484375 "/></g></g></g><g fill="#ff4e1f" fill-opacity="1"><g transform="translate(303.470639, 197.550007)"><g/></g></g><g fill="#ff4e1f" fill-opacity="1"><g transform="translate(318.644109, 197.550007)"><g><path d="M 9.4375 -20.484375 L 9.4375 2.65625 L 5.71875 2.65625 L 5.71875 -20.484375 Z M 9.4375 -20.484375 "/></g></g></g><g fill="#ff4e1f" fill-opacity="1"><g transform="translate(333.817578, 197.550007)"><g/></g></g><g fill="#ff4e1f" fill-opacity="1"><g transform="translate(348.991048, 197.550007)"><g><path d="M 9.4375 -20.484375 L 9.4375 2.65625 L 5.71875 2.65625 L 5.71875 -20.484375 Z M 9.4375 -20.484375 "/></g></g></g><g fill="#ff4e1f" fill-opacity="1"><g transform="translate(364.164517, 197.550007)"><g><path d="M 1.265625 4.703125 L 1.265625 1.5625 L 13.90625 1.5625 L 13.90625 4.703125 Z M 1.265625 4.703125 "/></g></g></g><g fill="#ff4e1f" fill-opacity="1"><g transform="translate(379.337987, 197.550007)"><g><path d="M 0.71875 -19.234375 L 3.84375 -20.671875 L 14.453125 1.40625 L 11.328125 2.828125 Z M 0.71875 -19.234375 "/></g></g></g><g fill="#ff4e1f" fill-opacity="1"><g transform="translate(394.511456, 197.550007)"><g><path d="M 1.265625 4.703125 L 1.265625 1.5625 L 13.90625 1.5625 L 13.90625 4.703125 Z M 1.265625 4.703125 "/></g></g></g><g fill="#ff4e1f" fill-opacity="1"><g transform="translate(409.684926, 197.550007)"><g><path d="M 1.265625 4.703125 L 1.265625 1.5625 L 13.90625 1.5625 L 13.90625 4.703125 Z M 1.265625 4.703125 "/></g></g></g><g fill="#ff4e1f" fill-opacity="1"><g transform="translate(424.858395, 197.550007)"><g/></g></g><g fill="#ff4e1f" fill-opacity="1"><g transform="translate(440.031864, 197.550007)"><g><path d="M 0.71875 -19.234375 L 3.84375 -20.671875 L 14.453125 1.40625 L 11.328125 2.828125 Z M 0.71875 -19.234375 "/></g></g></g><g fill="#ff4e1f" fill-opacity="1"><g transform="translate(15.173564, 232.288837)"><g><path d="M 0.71875 -19.234375 L 3.84375 -20.671875 L 14.453125 1.40625 L 11.328125 2.828125 Z M 0.71875 -19.234375 "/></g></g></g><g fill="#ff4e1f" fill-opacity="1"><g transform="translate(30.347033, 232.288837)"><g><path d="M 1.265625 4.703125 L 1.265625 1.5625 L 13.90625 1.5625 L 13.90625 4.703125 Z M 1.265625 4.703125 "/></g></g></g><g fill="#ff4e1f" fill-opacity="1"><g transform="translate(45.520502, 232.288837)"><g><path d="M 1.265625 4.703125 L 1.265625 1.5625 L 13.90625 1.5625 L 13.90625 4.703125 Z M 1.265625 4.703125 "/></g></g></g><g fill="#ff4e1f" fill-opacity="1"><g transform="translate(60.693972, 232.288837)"><g><path d="M 1.265625 4.703125 L 1.265625 1.5625 L 13.90625 1.5625 L 13.90625 4.703125 Z M 1.265625 4.703125 "/></g></g></g><g fill="#ff4e1f" fill-opacity="1"><g transform="translate(75.867441, 232.288837)"><g><path d="M 9.4375 -20.484375 L 9.4375 2.65625 L 5.71875 2.65625 L 5.71875 -20.484375 Z M 9.4375 -20.484375 "/></g></g></g><g fill="#ff4e1f" fill-opacity="1"><g transform="translate(91.040911, 232.288837)"><g/></g></g><g fill="#ff4e1f" fill-opacity="1"><g transform="translate(106.21438, 232.288837)"><g><path d="M 0.71875 -19.234375 L 3.84375 -20.671875 L 14.453125 1.40625 L 11.328125 2.828125 Z M 0.71875 -19.234375 "/></g></g></g><g fill="#ff4e1f" fill-opacity="1"><g transform="translate(121.38785, 232.288837)"><g><path d="M 1.265625 4.703125 L 1.265625 1.5625 L 13.90625 1.5625 L 13.90625 4.703125 Z M 1.265625 4.703125 "/></g></g></g><g fill="#ff4e1f" fill-opacity="1"><g transform="translate(136.561319, 232.288837)"><g><path d="M 3.84375 2.828125 L 0.71875 1.40625 L 11.359375 -20.671875 L 14.453125 -19.234375 Z M 3.84375 2.828125 "/></g></g></g><g fill="#ff4e1f" fill-opacity="1"><g transform="translate(151.734789, 232.288837)"><g/></g></g><g fill="#ff4e1f" fill-opacity="1"><g transform="translate(166.908258, 232.288837)"><g><path d="M 0.71875 -19.234375 L 3.84375 -20.671875 L 14.453125 1.40625 L 11.328125 2.828125 Z M 0.71875 -19.234375 "/></g></g></g><g fill="#ff4e1f" fill-opacity="1"><g transform="translate(182.081728, 232.288837)"><g><path d="M 1.265625 4.703125 L 1.265625 1.5625 L 13.90625 1.5625 L 13.90625 4.703125 Z M 1.265625 4.703125 "/></g></g></g><g fill="#ff4e1f" fill-opacity="1"><g transform="translate(197.255197, 232.288837)"><g><path d="M 1.265625 4.703125 L 1.265625 1.5625 L 13.90625 1.5625 L 13.90625 4.703125 Z M 1.265625 4.703125 "/></g></g></g><g fill="#ff4e1f" fill-opacity="1"><g transform="translate(212.428667, 232.288837)"><g><path d="M 1.265625 4.703125 L 1.265625 1.5625 L 13.90625 1.5625 L 13.90625 4.703125 Z M 1.265625 4.703125 "/></g></g></g><g fill="#ff4e1f" fill-opacity="1"><g transform="translate(227.602136, 232.288837)"><g><path d="M 9.4375 -20.484375 L 9.4375 2.65625 L 5.71875 2.65625 L 5.71875 -20.484375 Z M 9.4375 -20.484375 "/></g></g></g><g fill="#ff4e1f" fill-opacity="1"><g transform="translate(242.775606, 232.288837)"><g><path d="M 1.265625 4.703125 L 1.265625 1.5625 L 13.90625 1.5625 L 13.90625 4.703125 Z M 1.265625 4.703125 "/></g></g></g><g fill="#ff4e1f" fill-opacity="1"><g transform="translate(257.949075, 232.288837)"><g><path d="M 9.4375 -20.484375 L 9.4375 2.65625 L 5.71875 2.65625 L 5.71875 -20.484375 Z M 9.4375 -20.484375 "/></g></g></g><g fill="#ff4e1f" fill-opacity="1"><g transform="translate(273.122544, 232.288837)"><g/></g></g><g fill="#ff4e1f" fill-opacity="1"><g transform="translate(288.296014, 232.288837)"><g><path d="M 9.4375 -20.484375 L 9.4375 2.65625 L 5.71875 2.65625 L 5.71875 -20.484375 Z M 9.4375 -20.484375 "/></g></g></g><g fill="#ff4e1f" fill-opacity="1"><g transform="translate(303.469483, 232.288837)"><g><path d="M 1.265625 4.703125 L 1.265625 1.5625 L 13.90625 1.5625 L 13.90625 4.703125 Z M 1.265625 4.703125 "/></g></g></g><g fill="#ff4e1f" fill-opacity="1"><g transform="translate(318.642953, 232.288837)"><g><path d="M 9.4375 -20.484375 L 9.4375 2.65625 L 5.71875 2.65625 L 5.71875 -20.484375 Z M 9.4375 -20.484375 "/></g></g></g><g fill="#ff4e1f" fill-opacity="1"><g transform="translate(333.816422, 232.288837)"><g><path d="M 0.71875 -19.234375 L 3.84375 -20.671875 L 14.453125 1.40625 L 11.328125 2.828125 Z M 0.71875 -19.234375 "/></g></g></g><g fill="#ff4e1f" fill-opacity="1"><g transform="translate(348.989892, 232.288837)"><g><path d="M 1.265625 4.703125 L 1.265625 1.5625 L 13.90625 1.5625 L 13.90625 4.703125 Z M 1.265625 4.703125 "/></g></g></g><g fill="#ff4e1f" fill-opacity="1"><g transform="translate(364.163361, 232.288837)"><g><path d="M 1.265625 4.703125 L 1.265625 1.5625 L 13.90625 1.5625 L 13.90625 4.703125 Z M 1.265625 4.703125 "/></g></g></g><g fill="#ff4e1f" fill-opacity="1"><g transform="translate(379.336831, 232.288837)"><g><path d="M 9.4375 -20.484375 L 9.4375 2.65625 L 5.71875 2.65625 L 5.71875 -20.484375 Z M 9.4375 -20.484375 "/></g></g></g><g fill="#ff4e1f" fill-opacity="1"><g transform="translate(394.5103, 232.288837)"><g><path d="M 1.265625 4.703125 L 1.265625 1.5625 L 13.90625 1.5625 L 13.90625 4.703125 Z M 1.265625 4.703125 "/></g></g></g><g fill="#ff4e1f" fill-opacity="1"><g transform="translate(409.68377, 232.288837)"><g><path d="M 1.265625 4.703125 L 1.265625 1.5625 L 13.90625 1.5625 L 13.90625 4.703125 Z M 1.265625 4.703125 "/></g></g></g><g fill="#ff4e1f" fill-opacity="1"><g transform="translate(424.857239, 232.288837)"><g><path d="M 1.265625 4.703125 L 1.265625 1.5625 L 13.90625 1.5625 L 13.90625 4.703125 Z M 1.265625 4.703125 "/></g></g></g><g fill="#ff4e1f" fill-opacity="1"><g transform="translate(440.030709, 232.288837)"><g><path d="M 3.84375 2.828125 L 0.71875 1.40625 L 11.359375 -20.671875 L 14.453125 -19.234375 Z M 3.84375 2.828125 "/></g></g></g><g fill="#ff4e1f" fill-opacity="1"><g transform="translate(455.206971, 232.288837)"><g/></g></g></g></g></g></g></g></svg>