<svg xmlns="http://www.w3.org/2000/svg" xmlns:xlink="http://www.w3.org/1999/xlink" width="800" zoomAndPan="magnify" viewBox="0 0 600 599.999999" height="800" preserveAspectRatio="xMidYMid meet" version="1.0"><defs><g/><clipPath id="d63298bdf1"><path d="M 0.441406 25 L 73 25 L 73 98 L 0.441406 98 Z M 0.441406 25 " clip-rule="nonzero"/></clipPath><clipPath id="c53b9eeb6a"><rect x="0" width="400" y="0" height="221"/></clipPath><clipPath id="a0dc81aff8"><path d="M 0.679688 0.0390625 L 219.800781 0.0390625 L 219.800781 123.398438 L 0.679688 123.398438 Z M 0.679688 0.0390625 " clip-rule="nonzero"/></clipPath><clipPath id="31bb1e4114"><rect x="0" width="220" y="0" height="124"/></clipPath><clipPath id="ac64a9f2b3"><rect x="0" width="220" y="0" height="124"/></clipPath></defs><g transform="matrix(1, 0, 0, 1, 103, 60)"><g clip-path="url(#c53b9eeb6a)"><g fill="#ff00ff" fill-opacity="1"><g transform="translate(4.721539, 97.62685)"><g><path d="M 30.8125 -51.390625 L 30.8125 -20.578125 L 41.09375 -20.578125 L 41.09375 -51.390625 L 51.390625 -51.390625 L 51.390625 -71.953125 L 71.953125 -71.953125 L 71.953125 -51.390625 L 61.671875 -51.390625 L 61.671875 -20.578125 L 51.390625 -20.578125 L 51.390625 0 L 20.578125 0 L 20.578125 -20.578125 L 10.28125 -20.578125 L 10.28125 -51.390625 L 0 -51.390625 L 0 -71.953125 L 20.578125 -71.953125 L 20.578125 -51.390625 Z M 30.8125 -51.390625 "/></g></g></g><g fill="#ff00ff" fill-opacity="1"><g transform="translate(94.107098, 97.62685)"><g><path d="M 0 -71.953125 L 20.578125 -71.953125 L 20.578125 0 L 0 0 Z M 0 -71.953125 "/></g></g></g><g fill="#ff00ff" fill-opacity="1"><g transform="translate(132.110111, 97.62685)"><g><path d="M 51.390625 -51.390625 L 41.09375 -51.390625 L 41.09375 -61.671875 L 20.578125 -61.671875 L 20.578125 -10.28125 L 41.09375 -10.28125 L 41.09375 -20.578125 L 51.390625 -20.578125 Z M 61.671875 -61.671875 L 61.671875 -51.390625 L 71.953125 -51.390625 L 71.953125 -20.578125 L 61.671875 -20.578125 L 61.671875 -10.28125 L 51.390625 -10.28125 L 51.390625 0 L 0 0 L 0 -71.953125 L 51.390625 -71.953125 L 51.390625 -61.671875 Z M 61.671875 -61.671875 "/></g></g></g><g fill="#ff00ff" fill-opacity="1"><g transform="translate(221.495671, 97.62685)"><g><path d="M 20.578125 -10.28125 L 61.671875 -10.28125 L 61.671875 0 L 0 0 L 0 -71.953125 L 61.671875 -71.953125 L 61.671875 -61.671875 L 20.578125 -61.671875 L 20.578125 -41.09375 L 51.390625 -41.09375 L 51.390625 -30.8125 L 20.578125 -30.8125 Z M 20.578125 -10.28125 "/></g></g></g><g fill="#ff00ff" fill-opacity="1"><g transform="translate(300.644863, 97.62685)"><g><path d="M 10.28125 -51.390625 L 10.28125 -61.671875 L 20.578125 -61.671875 L 20.578125 -71.953125 L 61.671875 -71.953125 L 61.671875 -61.671875 L 71.953125 -61.671875 L 71.953125 -51.390625 L 82.1875 -51.390625 L 82.1875 -20.578125 L 71.953125 -20.578125 L 71.953125 -10.28125 L 61.671875 -10.28125 L 61.671875 0 L 20.578125 0 L 20.578125 -10.28125 L 10.28125 -10.28125 L 10.28125 -20.578125 L 0 -20.578125 L 0 -51.390625 Z M 51.390625 -51.390625 L 51.390625 -61.671875 L 30.8125 -61.671875 L 30.8125 -51.484375 L 20.578125 -51.484375 L 20.578125 -20.46875 L 30.8125 -20.46875 L 30.8125 -10.28125 L 51.390625 -10.28125 L 51.390625 -20.578125 L 61.671875 -20.578125 L 61.671875 -51.390625 Z M 51.390625 -51.390625 "/></g></g></g><g clip-path="url(#d63298bdf1)"><g fill="#00ffff" fill-opacity="1"><g transform="translate(0.867843, 97.62685)"><g><path d="M 30.8125 -51.390625 L 30.8125 -20.578125 L 41.09375 -20.578125 L 41.09375 -51.390625 L 51.390625 -51.390625 L 51.390625 -71.953125 L 71.953125 -71.953125 L 71.953125 -51.390625 L 61.671875 -51.390625 L 61.671875 -20.578125 L 51.390625 -20.578125 L 51.390625 0 L 20.578125 0 L 20.578125 -20.578125 L 10.28125 -20.578125 L 10.28125 -51.390625 L 0 -51.390625 L 0 -71.953125 L 20.578125 -71.953125 L 20.578125 -51.390625 Z M 30.8125 -51.390625 "/></g></g></g></g><g fill="#00ffff" fill-opacity="1"><g transform="translate(90.253403, 97.62685)"><g><path d="M 0 -71.953125 L 20.578125 -71.953125 L 20.578125 0 L 0 0 Z M 0 -71.953125 "/></g></g></g><g fill="#00ffff" fill-opacity="1"><g transform="translate(128.256416, 97.62685)"><g><path d="M 51.390625 -51.390625 L 41.09375 -51.390625 L 41.09375 -61.671875 L 20.578125 -61.671875 L 20.578125 -10.28125 L 41.09375 -10.28125 L 41.09375 -20.578125 L 51.390625 -20.578125 Z M 61.671875 -61.671875 L 61.671875 -51.390625 L 71.953125 -51.390625 L 71.953125 -20.578125 L 61.671875 -20.578125 L 61.671875 -10.28125 L 51.390625 -10.28125 L 51.390625 0 L 0 0 L 0 -71.953125 L 51.390625 -71.953125 L 51.390625 -61.671875 Z M 61.671875 -61.671875 "/></g></g></g><g fill="#00ffff" fill-opacity="1"><g transform="translate(217.641975, 97.62685)"><g><path d="M 20.578125 -10.28125 L 61.671875 -10.28125 L 61.671875 0 L 0 0 L 0 -71.953125 L 61.671875 -71.953125 L 61.671875 -61.671875 L 20.578125 -61.671875 L 20.578125 -41.09375 L 51.390625 -41.09375 L 51.390625 -30.8125 L 20.578125 -30.8125 Z M 20.578125 -10.28125 "/></g></g></g><g fill="#00ffff" fill-opacity="1"><g transform="translate(296.791167, 97.62685)"><g><path d="M 10.28125 -51.390625 L 10.28125 -61.671875 L 20.578125 -61.671875 L 20.578125 -71.953125 L 61.671875 -71.953125 L 61.671875 -61.671875 L 71.953125 -61.671875 L 71.953125 -51.390625 L 82.1875 -51.390625 L 82.1875 -20.578125 L 71.953125 -20.578125 L 71.953125 -10.28125 L 61.671875 -10.28125 L 61.671875 0 L 20.578125 0 L 20.578125 -10.28125 L 10.28125 -10.28125 L 10.28125 -20.578125 L 0 -20.578125 L 0 -51.390625 Z M 51.390625 -51.390625 L 51.390625 -61.671875 L 30.8125 -61.671875 L 30.8125 -51.484375 L 20.578125 -51.484375 L 20.578125 -20.46875 L 30.8125 -20.46875 L 30.8125 -10.28125 L 51.390625 -10.28125 L 51.390625 -20.578125 L 61.671875 -20.578125 L 61.671875 -51.390625 Z M 51.390625 -51.390625 "/></g></g></g><g fill="#c67de0" fill-opacity="1"><g transform="translate(2.794691, 97.62685)"><g><path d="M 30.8125 -51.390625 L 30.8125 -20.578125 L 41.09375 -20.578125 L 41.09375 -51.390625 L 51.390625 -51.390625 L 51.390625 -71.953125 L 71.953125 -71.953125 L 71.953125 -51.390625 L 61.671875 -51.390625 L 61.671875 -20.578125 L 51.390625 -20.578125 L 51.390625 0 L 20.578125 0 L 20.578125 -20.578125 L 10.28125 -20.578125 L 10.28125 -51.390625 L 0 -51.390625 L 0 -71.953125 L 20.578125 -71.953125 L 20.578125 -51.390625 Z M 30.8125 -51.390625 "/></g></g></g><g fill="#c67de0" fill-opacity="1"><g transform="translate(92.18025, 97.62685)"><g><path d="M 0 -71.953125 L 20.578125 -71.953125 L 20.578125 0 L 0 0 Z M 0 -71.953125 "/></g></g></g><g fill="#c67de0" fill-opacity="1"><g transform="translate(130.183263, 97.62685)"><g><path d="M 51.390625 -51.390625 L 41.09375 -51.390625 L 41.09375 -61.671875 L 20.578125 -61.671875 L 20.578125 -10.28125 L 41.09375 -10.28125 L 41.09375 -20.578125 L 51.390625 -20.578125 Z M 61.671875 -61.671875 L 61.671875 -51.390625 L 71.953125 -51.390625 L 71.953125 -20.578125 L 61.671875 -20.578125 L 61.671875 -10.28125 L 51.390625 -10.28125 L 51.390625 0 L 0 0 L 0 -71.953125 L 51.390625 -71.953125 L 51.390625 -61.671875 Z M 61.671875 -61.671875 "/></g></g></g><g fill="#c67de0" fill-opacity="1"><g transform="translate(219.568823, 97.62685)"><g><path d="M 20.578125 -10.28125 L 61.671875 -10.28125 L 61.671875 0 L 0 0 L 0 -71.953125 L 61.671875 -71.953125 L 61.671875 -61.671875 L 20.578125 -61.671875 L 20.578125 -41.09375 L 51.390625 -41.09375 L 51.390625 -30.8125 L 20.578125 -30.8125 Z M 20.578125 -10.28125 "/></g></g></g><g fill="#c67de0" fill-opacity="1"><g transform="translate(298.718015, 97.62685)"><g><path d="M 10.28125 -51.390625 L 10.28125 -61.671875 L 20.578125 -61.671875 L 20.578125 -71.953125 L 61.671875 -71.953125 L 61.671875 -61.671875 L 71.953125 -61.671875 L 71.953125 -51.390625 L 82.1875 -51.390625 L 82.1875 -20.578125 L 71.953125 -20.578125 L 71.953125 -10.28125 L 61.671875 -10.28125 L 61.671875 0 L 20.578125 0 L 20.578125 -10.28125 L 10.28125 -10.28125 L 10.28125 -20.578125 L 0 -20.578125 L 0 -51.390625 Z M 51.390625 -51.390625 L 51.390625 -61.671875 L 30.8125 -61.671875 L 30.8125 -51.484375 L 20.578125 -51.484375 L 20.578125 -20.46875 L 30.8125 -20.46875 L 30.8125 -10.28125 L 51.390625 -10.28125 L 51.390625 -20.578125 L 61.671875 -20.578125 L 61.671875 -51.390625 Z M 51.390625 -51.390625 "/></g></g></g><g fill="#ff00ff" fill-opacity="1"><g transform="translate(13.914197, 194.734854)"><g><path d="M 10.28125 -41.09375 L 41.09375 -41.09375 L 41.09375 -30.8125 L 51.390625 -30.8125 L 51.390625 -10.28125 L 41.09375 -10.28125 L 41.09375 -30.8125 L 10.28125 -30.8125 Z M 10.28125 -71.953125 L 41.09375 -71.953125 L 41.09375 -61.671875 L 51.390625 -61.671875 L 51.390625 -51.390625 L 41.09375 -51.390625 L 41.09375 -61.671875 L 10.28125 -61.671875 Z M 10.28125 -10.28125 L 41.09375 -10.28125 L 41.09375 0 L 10.28125 0 Z M 10.28125 -41.09375 L 0 -41.09375 L 0 -61.671875 L 10.28125 -61.671875 Z M 10.28125 -10.28125 L 0 -10.28125 L 0 -20.578125 L 10.28125 -20.578125 Z M 10.28125 -10.28125 "/></g></g><g transform="translate(85.869833, 194.734854)"><g><path d="M 41.09375 -41.09375 L 41.09375 -30.8125 L 10.28125 -30.8125 L 10.28125 0 L 0 0 L 0 -71.953125 L 41.09375 -71.953125 L 41.09375 -61.671875 L 51.390625 -61.671875 L 51.390625 -41.09375 Z M 10.28125 -41.09375 L 41 -41.09375 L 41 -61.671875 L 10.28125 -61.671875 Z M 10.28125 -41.09375 "/></g></g><g transform="translate(157.825468, 194.734854)"><g><path d="M 10.28125 -10.28125 L 51.390625 -10.28125 L 51.390625 0 L 0 0 L 0 -71.953125 L 51.390625 -71.953125 L 51.390625 -61.671875 L 10.28125 -61.671875 L 10.28125 -41.09375 L 41.09375 -41.09375 L 41.09375 -30.8125 L 10.28125 -30.8125 Z M 10.28125 -10.28125 "/></g></g><g transform="translate(229.781103, 194.734854)"><g><path d="M 61.671875 -61.671875 L 61.671875 -51.390625 L 51.390625 -51.390625 L 51.390625 -61.671875 L 20.578125 -61.671875 L 20.578125 -71.953125 L 51.390625 -71.953125 L 51.390625 -61.671875 Z M 20.578125 -20.46875 L 20.578125 -10.28125 L 51.390625 -10.28125 L 51.390625 0 L 20.578125 0 L 20.578125 -10.28125 L 10.28125 -10.28125 L 10.28125 -20.46875 Z M 10.28125 -51.390625 L 10.28125 -20.578125 L 0 -20.578125 L 0 -51.390625 Z M 51.390625 -10.28125 L 51.390625 -20.578125 L 61.671875 -20.578125 L 61.671875 -10.28125 Z M 20.578125 -51.484375 L 10.28125 -51.484375 L 10.28125 -61.671875 L 20.578125 -61.671875 Z M 20.578125 -51.484375 "/></g></g><g transform="translate(311.973105, 194.734854)"><g><path d="M 10.28125 -41.09375 L 41.09375 -41.09375 L 41.09375 -30.8125 L 51.390625 -30.8125 L 51.390625 -10.28125 L 41.09375 -10.28125 L 41.09375 -30.8125 L 10.28125 -30.8125 Z M 10.28125 -71.953125 L 41.09375 -71.953125 L 41.09375 -61.671875 L 51.390625 -61.671875 L 51.390625 -51.390625 L 41.09375 -51.390625 L 41.09375 -61.671875 L 10.28125 -61.671875 Z M 10.28125 -10.28125 L 41.09375 -10.28125 L 41.09375 0 L 10.28125 0 Z M 10.28125 -41.09375 L 0 -41.09375 L 0 -61.671875 L 10.28125 -61.671875 Z M 10.28125 -10.28125 L 0 -10.28125 L 0 -20.578125 L 10.28125 -20.578125 Z M 10.28125 -10.28125 "/></g></g></g><g fill="#00ffff" fill-opacity="1"><g transform="translate(10.060506, 194.734854)"><g><path d="M 10.28125 -41.09375 L 41.09375 -41.09375 L 41.09375 -30.8125 L 51.390625 -30.8125 L 51.390625 -10.28125 L 41.09375 -10.28125 L 41.09375 -30.8125 L 10.28125 -30.8125 Z M 10.28125 -71.953125 L 41.09375 -71.953125 L 41.09375 -61.671875 L 51.390625 -61.671875 L 51.390625 -51.390625 L 41.09375 -51.390625 L 41.09375 -61.671875 L 10.28125 -61.671875 Z M 10.28125 -10.28125 L 41.09375 -10.28125 L 41.09375 0 L 10.28125 0 Z M 10.28125 -41.09375 L 0 -41.09375 L 0 -61.671875 L 10.28125 -61.671875 Z M 10.28125 -10.28125 L 0 -10.28125 L 0 -20.578125 L 10.28125 -20.578125 Z M 10.28125 -10.28125 "/></g></g><g transform="translate(82.016141, 194.734854)"><g><path d="M 41.09375 -41.09375 L 41.09375 -30.8125 L 10.28125 -30.8125 L 10.28125 0 L 0 0 L 0 -71.953125 L 41.09375 -71.953125 L 41.09375 -61.671875 L 51.390625 -61.671875 L 51.390625 -41.09375 Z M 10.28125 -41.09375 L 41 -41.09375 L 41 -61.671875 L 10.28125 -61.671875 Z M 10.28125 -41.09375 "/></g></g><g transform="translate(153.971776, 194.734854)"><g><path d="M 10.28125 -10.28125 L 51.390625 -10.28125 L 51.390625 0 L 0 0 L 0 -71.953125 L 51.390625 -71.953125 L 51.390625 -61.671875 L 10.28125 -61.671875 L 10.28125 -41.09375 L 41.09375 -41.09375 L 41.09375 -30.8125 L 10.28125 -30.8125 Z M 10.28125 -10.28125 "/></g></g><g transform="translate(225.927411, 194.734854)"><g><path d="M 61.671875 -61.671875 L 61.671875 -51.390625 L 51.390625 -51.390625 L 51.390625 -61.671875 L 20.578125 -61.671875 L 20.578125 -71.953125 L 51.390625 -71.953125 L 51.390625 -61.671875 Z M 20.578125 -20.46875 L 20.578125 -10.28125 L 51.390625 -10.28125 L 51.390625 0 L 20.578125 0 L 20.578125 -10.28125 L 10.28125 -10.28125 L 10.28125 -20.46875 Z M 10.28125 -51.390625 L 10.28125 -20.578125 L 0 -20.578125 L 0 -51.390625 Z M 51.390625 -10.28125 L 51.390625 -20.578125 L 61.671875 -20.578125 L 61.671875 -10.28125 Z M 20.578125 -51.484375 L 10.28125 -51.484375 L 10.28125 -61.671875 L 20.578125 -61.671875 Z M 20.578125 -51.484375 "/></g></g><g transform="translate(308.119413, 194.734854)"><g><path d="M 10.28125 -41.09375 L 41.09375 -41.09375 L 41.09375 -30.8125 L 51.390625 -30.8125 L 51.390625 -10.28125 L 41.09375 -10.28125 L 41.09375 -30.8125 L 10.28125 -30.8125 Z M 10.28125 -71.953125 L 41.09375 -71.953125 L 41.09375 -61.671875 L 51.390625 -61.671875 L 51.390625 -51.390625 L 41.09375 -51.390625 L 41.09375 -61.671875 L 10.28125 -61.671875 Z M 10.28125 -10.28125 L 41.09375 -10.28125 L 41.09375 0 L 10.28125 0 Z M 10.28125 -41.09375 L 0 -41.09375 L 0 -61.671875 L 10.28125 -61.671875 Z M 10.28125 -10.28125 L 0 -10.28125 L 0 -20.578125 L 10.28125 -20.578125 Z M 10.28125 -10.28125 "/></g></g></g><g fill="#7edaf2" fill-opacity="1"><g transform="translate(11.98735, 194.734854)"><g><path d="M 10.28125 -41.09375 L 41.09375 -41.09375 L 41.09375 -30.8125 L 51.390625 -30.8125 L 51.390625 -10.28125 L 41.09375 -10.28125 L 41.09375 -30.8125 L 10.28125 -30.8125 Z M 10.28125 -71.953125 L 41.09375 -71.953125 L 41.09375 -61.671875 L 51.390625 -61.671875 L 51.390625 -51.390625 L 41.09375 -51.390625 L 41.09375 -61.671875 L 10.28125 -61.671875 Z M 10.28125 -10.28125 L 41.09375 -10.28125 L 41.09375 0 L 10.28125 0 Z M 10.28125 -41.09375 L 0 -41.09375 L 0 -61.671875 L 10.28125 -61.671875 Z M 10.28125 -10.28125 L 0 -10.28125 L 0 -20.578125 L 10.28125 -20.578125 Z M 10.28125 -10.28125 "/></g></g><g transform="translate(83.942985, 194.734854)"><g><path d="M 41.09375 -41.09375 L 41.09375 -30.8125 L 10.28125 -30.8125 L 10.28125 0 L 0 0 L 0 -71.953125 L 41.09375 -71.953125 L 41.09375 -61.671875 L 51.390625 -61.671875 L 51.390625 -41.09375 Z M 10.28125 -41.09375 L 41 -41.09375 L 41 -61.671875 L 10.28125 -61.671875 Z M 10.28125 -41.09375 "/></g></g><g transform="translate(155.898621, 194.734854)"><g><path d="M 10.28125 -10.28125 L 51.390625 -10.28125 L 51.390625 0 L 0 0 L 0 -71.953125 L 51.390625 -71.953125 L 51.390625 -61.671875 L 10.28125 -61.671875 L 10.28125 -41.09375 L 41.09375 -41.09375 L 41.09375 -30.8125 L 10.28125 -30.8125 Z M 10.28125 -10.28125 "/></g></g><g transform="translate(227.854256, 194.734854)"><g><path d="M 61.671875 -61.671875 L 61.671875 -51.390625 L 51.390625 -51.390625 L 51.390625 -61.671875 L 20.578125 -61.671875 L 20.578125 -71.953125 L 51.390625 -71.953125 L 51.390625 -61.671875 Z M 20.578125 -20.46875 L 20.578125 -10.28125 L 51.390625 -10.28125 L 51.390625 0 L 20.578125 0 L 20.578125 -10.28125 L 10.28125 -10.28125 L 10.28125 -20.46875 Z M 10.28125 -51.390625 L 10.28125 -20.578125 L 0 -20.578125 L 0 -51.390625 Z M 51.390625 -10.28125 L 51.390625 -20.578125 L 61.671875 -20.578125 L 61.671875 -10.28125 Z M 20.578125 -51.484375 L 10.28125 -51.484375 L 10.28125 -61.671875 L 20.578125 -61.671875 Z M 20.578125 -51.484375 "/></g></g><g transform="translate(310.046258, 194.734854)"><g><path d="M 10.28125 -41.09375 L 41.09375 -41.09375 L 41.09375 -30.8125 L 51.390625 -30.8125 L 51.390625 -10.28125 L 41.09375 -10.28125 L 41.09375 -30.8125 L 10.28125 -30.8125 Z M 10.28125 -71.953125 L 41.09375 -71.953125 L 41.09375 -61.671875 L 51.390625 -61.671875 L 51.390625 -51.390625 L 41.09375 -51.390625 L 41.09375 -61.671875 L 10.28125 -61.671875 Z M 10.28125 -10.28125 L 41.09375 -10.28125 L 41.09375 0 L 10.28125 0 Z M 10.28125 -41.09375 L 0 -41.09375 L 0 -61.671875 L 10.28125 -61.671875 Z M 10.28125 -10.28125 L 0 -10.28125 L 0 -20.578125 L 10.28125 -20.578125 Z M 10.28125 -10.28125 "/></g></g></g></g></g><g transform="matrix(1, 0, 0, 1, 205, 233)"><g clip-path="url(#ac64a9f2b3)"><g clip-path="url(#a0dc81aff8)"><g transform="matrix(1, 0, 0, 1, 0, -0.000000000000028422)"><g clip-path="url(#31bb1e4114)"><g fill="#ff00ff" fill-opacity="1"><g transform="translate(4.939292, 96.931393)"><g><path d="M 10.28125 -20.578125 L 10.28125 -10.28125 L 0 -10.28125 L 0 -20.578125 L 10.28125 -20.578125 L 10.28125 -30.8125 L 30.859375 -30.8125 L 30.859375 -41.09375 L 51.390625 -41.09375 L 51.390625 -30.8125 L 30.859375 -30.8125 L 30.859375 -20.578125 Z M 10.28125 -41.09375 L 10.28125 -51.390625 L 30.859375 -51.390625 L 30.859375 -41.09375 Z M 10.28125 -51.390625 L 0 -51.390625 L 0 -61.671875 L 10.28125 -61.671875 Z M 10.28125 -51.390625 "/></g></g></g><g fill="#ff00ff" fill-opacity="1"><g transform="translate(76.892562, 96.931393)"><g><path d="M 10.28125 -20.578125 L 10.28125 -10.28125 L 0 -10.28125 L 0 -20.578125 L 10.28125 -20.578125 L 10.28125 -30.8125 L 30.859375 -30.8125 L 30.859375 -41.09375 L 51.390625 -41.09375 L 51.390625 -30.8125 L 30.859375 -30.8125 L 30.859375 -20.578125 Z M 10.28125 -41.09375 L 10.28125 -51.390625 L 30.859375 -51.390625 L 30.859375 -41.09375 Z M 10.28125 -51.390625 L 0 -51.390625 L 0 -61.671875 L 10.28125 -61.671875 Z M 10.28125 -51.390625 "/></g></g></g><g fill="#ff00ff" fill-opacity="1"><g transform="translate(148.845833, 96.931393)"><g><path d="M 10.28125 -20.578125 L 10.28125 -10.28125 L 0 -10.28125 L 0 -20.578125 L 10.28125 -20.578125 L 10.28125 -30.8125 L 30.859375 -30.8125 L 30.859375 -41.09375 L 51.390625 -41.09375 L 51.390625 -30.8125 L 30.859375 -30.8125 L 30.859375 -20.578125 Z M 10.28125 -41.09375 L 10.28125 -51.390625 L 30.859375 -51.390625 L 30.859375 -41.09375 Z M 10.28125 -51.390625 L 0 -51.390625 L 0 -61.671875 L 10.28125 -61.671875 Z M 10.28125 -51.390625 "/></g></g></g><g fill="#00ffff" fill-opacity="1"><g transform="translate(1.08561, 96.931393)"><g><path d="M 10.28125 -20.578125 L 10.28125 -10.28125 L 0 -10.28125 L 0 -20.578125 L 10.28125 -20.578125 L 10.28125 -30.8125 L 30.859375 -30.8125 L 30.859375 -41.09375 L 51.390625 -41.09375 L 51.390625 -30.8125 L 30.859375 -30.8125 L 30.859375 -20.578125 Z M 10.28125 -41.09375 L 10.28125 -51.390625 L 30.859375 -51.390625 L 30.859375 -41.09375 Z M 10.28125 -51.390625 L 0 -51.390625 L 0 -61.671875 L 10.28125 -61.671875 Z M 10.28125 -51.390625 "/></g></g></g><g fill="#00ffff" fill-opacity="1"><g transform="translate(73.03888, 96.931393)"><g><path d="M 10.28125 -20.578125 L 10.28125 -10.28125 L 0 -10.28125 L 0 -20.578125 L 10.28125 -20.578125 L 10.28125 -30.8125 L 30.859375 -30.8125 L 30.859375 -41.09375 L 51.390625 -41.09375 L 51.390625 -30.8125 L 30.859375 -30.8125 L 30.859375 -20.578125 Z M 10.28125 -41.09375 L 10.28125 -51.390625 L 30.859375 -51.390625 L 30.859375 -41.09375 Z M 10.28125 -51.390625 L 0 -51.390625 L 0 -61.671875 L 10.28125 -61.671875 Z M 10.28125 -51.390625 "/></g></g></g><g fill="#00ffff" fill-opacity="1"><g transform="translate(144.992151, 96.931393)"><g><path d="M 10.28125 -20.578125 L 10.28125 -10.28125 L 0 -10.28125 L 0 -20.578125 L 10.28125 -20.578125 L 10.28125 -30.8125 L 30.859375 -30.8125 L 30.859375 -41.09375 L 51.390625 -41.09375 L 51.390625 -30.8125 L 30.859375 -30.8125 L 30.859375 -20.578125 Z M 10.28125 -41.09375 L 10.28125 -51.390625 L 30.859375 -51.390625 L 30.859375 -41.09375 Z M 10.28125 -51.390625 L 0 -51.390625 L 0 -61.671875 L 10.28125 -61.671875 Z M 10.28125 -51.390625 "/></g></g></g><g fill="#f1f1f1" fill-opacity="1"><g transform="translate(3.012467, 96.931393)"><g><path d="M 10.28125 -20.578125 L 10.28125 -10.28125 L 0 -10.28125 L 0 -20.578125 L 10.28125 -20.578125 L 10.28125 -30.8125 L 30.859375 -30.8125 L 30.859375 -41.09375 L 51.390625 -41.09375 L 51.390625 -30.8125 L 30.859375 -30.8125 L 30.859375 -20.578125 Z M 10.28125 -41.09375 L 10.28125 -51.390625 L 30.859375 -51.390625 L 30.859375 -41.09375 Z M 10.28125 -51.390625 L 0 -51.390625 L 0 -61.671875 L 10.28125 -61.671875 Z M 10.28125 -51.390625 "/></g></g></g><g fill="#f1f1f1" fill-opacity="1"><g transform="translate(74.965737, 96.931393)"><g><path d="M 10.28125 -20.578125 L 10.28125 -10.28125 L 0 -10.28125 L 0 -20.578125 L 10.28125 -20.578125 L 10.28125 -30.8125 L 30.859375 -30.8125 L 30.859375 -41.09375 L 51.390625 -41.09375 L 51.390625 -30.8125 L 30.859375 -30.8125 L 30.859375 -20.578125 Z M 10.28125 -41.09375 L 10.28125 -51.390625 L 30.859375 -51.390625 L 30.859375 -41.09375 Z M 10.28125 -51.390625 L 0 -51.390625 L 0 -61.671875 L 10.28125 -61.671875 Z M 10.28125 -51.390625 "/></g></g></g><g fill="#f1f1f1" fill-opacity="1"><g transform="translate(146.919007, 96.931393)"><g><path d="M 10.28125 -20.578125 L 10.28125 -10.28125 L 0 -10.28125 L 0 -20.578125 L 10.28125 -20.578125 L 10.28125 -30.8125 L 30.859375 -30.8125 L 30.859375 -41.09375 L 51.390625 -41.09375 L 51.390625 -30.8125 L 30.859375 -30.8125 L 30.859375 -20.578125 Z M 10.28125 -41.09375 L 10.28125 -51.390625 L 30.859375 -51.390625 L 30.859375 -41.09375 Z M 10.28125 -51.390625 L 0 -51.390625 L 0 -61.671875 L 10.28125 -61.671875 Z M 10.28125 -51.390625 "/></g></g></g></g></g></g></g></g></svg>